<?xml version="1.0" encoding="utf-8"?>
<!-- Generator: Adobe Illustrator 26.0.1, SVG Export Plug-In . SVG Version: 6.00 Build 0)  -->
<svg version="1.1" id="圖層_1" xmlns="http://www.w3.org/2000/svg" xmlns:xlink="http://www.w3.org/1999/xlink" x="0px" y="0px"
	 viewBox="0 0 132 27" style="enable-background:new 0 0 132 27;" xml:space="preserve">
<style type="text/css">
	.st0{fill:#0184FF;}
	.st1{fill:#231815;}
</style>
<path class="st0" d="M21.1,13.5c-3.5,0-6.4-2.9-6.4-6.4c0-3.5,2.9-6.4,6.4-6.4s6.4,2.9,6.4,6.4C27.5,10.7,24.7,13.5,21.1,13.5z"/>
<path class="st0" d="M6.4,27C2.9,27,0,24.1,0,20.6s2.9-6.4,6.4-6.4s6.4,2.9,6.4,6.4S10,27,6.4,27z"/>
<path class="st0" d="M0.2,0.7C0,0.7-0.1,0.9,0.1,1l12.5,11.9c0.1,0.1,0.3,0,0.3-0.1V0.9c0-0.1-0.1-0.2-0.2-0.2H0.2z"/>
<path class="st0" d="M27.3,27c0.2,0,0.3-0.2,0.1-0.3L15,14.8c-0.1-0.1-0.3,0-0.3,0.1v11.9c0,0.1,0.1,0.2,0.2,0.2H27.3z"/>
<path class="st1" d="M45.3,8.6c0.9,1.2,1.5,2.1,1.8,2.6h0.1c0.5-0.7,1.1-1.6,1.8-2.6l2.4-3.4c0-0.1,0.1-0.1,0.2-0.2
	C51.7,5,51.7,5,51.8,5h2.5c0.1,0,0.2,0,0.3,0.1c0.1,0,0.1,0.1,0.2,0.2c0,0.1,0.1,0.2,0.1,0.3c0,0.1,0,0.2-0.1,0.3l-5.5,7.5
	c-0.1,0.1-0.1,0.2-0.1,0.3c0,0.1,0,0.2,0.1,0.3l5.7,7.8c0.1,0.1,0.1,0.2,0.1,0.3c0,0.1,0,0.2-0.1,0.3c0,0.1-0.1,0.2-0.2,0.2
	c-0.1,0-0.2,0.1-0.3,0.1h-2.5c-0.1,0-0.2,0-0.2-0.1c-0.1,0-0.1-0.1-0.2-0.2l-2.6-3.7c-0.7-1-1.3-1.9-1.9-2.7h-0.1
	c-0.6,0.9-1.2,1.8-1.9,2.7l-2.6,3.7c0,0.1-0.1,0.1-0.2,0.2c-0.1,0-0.2,0.1-0.2,0.1h-2.5c-0.1,0-0.2,0-0.3-0.1
	c-0.1,0-0.1-0.1-0.2-0.2c0-0.1-0.1-0.2-0.1-0.3c0-0.1,0-0.2,0.1-0.3l5.7-7.8c0.1-0.1,0.1-0.2,0.1-0.3c0-0.1,0-0.2-0.1-0.3l-5.5-7.5
	c-0.1-0.1-0.1-0.2-0.1-0.3c0-0.1,0-0.2,0.1-0.3c0-0.1,0.1-0.2,0.2-0.2C39.8,5,39.9,5,39.9,5h2.5c0.1,0,0.2,0,0.2,0.1
	c0.1,0,0.1,0.1,0.2,0.2L45.3,8.6z"/>
<path class="st1" d="M80,10.3c0,1.2-0.3,2.3-1,3.1c-0.7,0.9-1.8,1.5-3.2,1.9v0.1l4.7,6.4c0.1,0.1,0.1,0.2,0.1,0.3
	c0,0.1,0,0.2-0.1,0.3c0,0.1-0.1,0.2-0.2,0.2c-0.1,0-0.2,0.1-0.3,0.1h-2.7c-0.1,0-0.2,0-0.2-0.1c-0.1,0-0.1-0.1-0.2-0.2L72.5,16
	c0-0.1-0.1-0.1-0.2-0.2c-0.1,0-0.2-0.1-0.2-0.1h-1.5c-0.1,0-0.3,0.1-0.4,0.1c-0.1,0.1-0.2,0.2-0.2,0.4V22c0,0.1-0.1,0.3-0.2,0.4
	c-0.1,0.1-0.2,0.1-0.4,0.1h-2.3c-0.1,0-0.3-0.1-0.4-0.1c-0.1-0.1-0.2-0.2-0.2-0.4V5.5c0-0.1,0-0.1,0-0.2c0-0.1,0.1-0.1,0.1-0.2
	c0,0,0.1-0.1,0.2-0.1c0.1,0,0.1,0,0.2,0h4.9c0.8,0,1.7,0,2.5,0.2c0.7,0.1,1.3,0.2,2,0.5c1.1,0.4,1.9,1,2.4,1.7
	C79.7,8.1,80,9.1,80,10.3z M71.7,13.1c0.6,0,1.3,0,1.9-0.1c0.4,0,0.9-0.1,1.3-0.3c0.7-0.2,1.1-0.6,1.4-1c0.3-0.4,0.4-0.9,0.4-1.5
	c0-0.4-0.1-0.9-0.3-1.3c-0.2-0.4-0.5-0.6-1-0.9c-0.4-0.2-0.8-0.3-1.2-0.3c-0.6-0.1-1.2-0.1-1.8-0.1h-1.8c-0.1,0-0.3,0.1-0.4,0.1
	c-0.1,0.1-0.2,0.2-0.2,0.4v4.4c0,0.1,0.1,0.3,0.2,0.4c0.1,0.1,0.2,0.1,0.4,0.1H71.7z"/>
<path class="st1" d="M96.1,19.9h7.8c0.1,0,0.1,0,0.2,0c0.1,0,0.1,0.1,0.2,0.1c0,0,0.1,0.1,0.1,0.2c0,0.1,0,0.1,0,0.2V22
	c0,0.1,0,0.1,0,0.2c0,0.1-0.1,0.1-0.1,0.2c0,0-0.1,0.1-0.2,0.1c-0.1,0-0.1,0-0.2,0H92.8c-0.1,0-0.1,0-0.2,0s-0.1-0.1-0.2-0.1
	c0,0-0.1-0.1-0.1-0.2c0-0.1,0-0.1,0-0.2V5.5c0-0.1,0-0.1,0-0.2c0-0.1,0.1-0.1,0.1-0.2c0,0,0.1-0.1,0.2-0.1c0.1,0,0.1,0,0.2,0h10.6
	c0.1,0,0.1,0,0.2,0c0.1,0,0.1,0.1,0.2,0.1c0,0,0.1,0.1,0.1,0.2c0,0.1,0,0.1,0,0.2v1.7c0,0.1,0,0.1,0,0.2c0,0.1-0.1,0.1-0.1,0.2
	c0,0-0.1,0.1-0.2,0.1c-0.1,0-0.1,0-0.2,0h-7.3c-0.1,0-0.1,0-0.2,0s-0.1,0.1-0.2,0.1c0,0-0.1,0.1-0.1,0.2c0,0.1,0,0.1,0,0.2v3.5
	c0,0.1,0,0.1,0,0.2c0,0.1,0.1,0.1,0.1,0.2c0,0,0.1,0.1,0.2,0.1c0.1,0,0.1,0,0.2,0h6.1c0.1,0,0.1,0,0.2,0c0.1,0,0.1,0.1,0.2,0.1
	c0,0,0.1,0.1,0.1,0.2c0,0.1,0,0.1,0,0.2v1.7c0,0.1,0,0.1,0,0.2s-0.1,0.1-0.1,0.2c0,0-0.1,0.1-0.2,0.1c-0.1,0-0.1,0-0.2,0h-6.1
	c-0.1,0-0.1,0-0.2,0c-0.1,0-0.1,0.1-0.2,0.1c0,0-0.1,0.1-0.1,0.2c0,0.1,0,0.1,0,0.2v3.9c0,0.1,0,0.1,0,0.2c0,0.1,0.1,0.1,0.1,0.2
	c0,0,0.1,0.1,0.2,0.1C96,19.8,96.1,19.9,96.1,19.9z"/>
<path class="st1" d="M122.2,8.6c0.9,1.2,1.5,2.1,1.8,2.6h0.1c0.5-0.7,1.1-1.6,1.8-2.6l2.4-3.4c0-0.1,0.1-0.1,0.2-0.2
	c0.1,0,0.2-0.1,0.2-0.1h2.5c0.1,0,0.2,0,0.3,0.1c0.1,0,0.1,0.1,0.2,0.2c0,0.1,0.1,0.2,0.1,0.3c0,0.1,0,0.2-0.1,0.3l-5.5,7.5
	c-0.1,0.1-0.1,0.2-0.1,0.3c0,0.1,0,0.2,0.1,0.3l5.7,7.8c0.1,0.1,0.1,0.2,0.1,0.3c0,0.1,0,0.2-0.1,0.3c0,0.1-0.1,0.2-0.2,0.2
	c-0.1,0-0.2,0.1-0.3,0.1H129c-0.1,0-0.2,0-0.2-0.1c-0.1,0-0.1-0.1-0.2-0.2l-2.6-3.7c-0.7-1-1.3-1.9-1.9-2.7H124
	c-0.6,0.9-1.2,1.8-1.9,2.7l-2.6,3.7c0,0.1-0.1,0.1-0.2,0.2c-0.1,0-0.2,0.1-0.2,0.1h-2.5c-0.1,0-0.2,0-0.3-0.1
	c-0.1,0-0.1-0.1-0.2-0.2c0-0.1-0.1-0.2-0.1-0.3c0-0.1,0-0.2,0.1-0.3l5.7-7.8c0.1-0.1,0.1-0.2,0.1-0.3c0-0.1,0-0.2-0.1-0.3l-5.5-7.5
	c-0.1-0.1-0.1-0.2-0.1-0.3c0-0.1,0-0.2,0.1-0.3c0-0.1,0.1-0.2,0.2-0.2c0.1,0,0.2-0.1,0.3-0.1h2.5c0.1,0,0.2,0,0.2,0.1
	c0.1,0,0.1,0.1,0.2,0.2L122.2,8.6z"/>
</svg>
