<?xml version="1.0" encoding="utf-8"?>
<!-- Generator: Adobe Illustrator 24.0.1, SVG Export Plug-In . SVG Version: 6.00 Build 0)  -->
<svg version="1.1" id="圖層_1" xmlns="http://www.w3.org/2000/svg" xmlns:xlink="http://www.w3.org/1999/xlink" x="0px" y="0px"
	 viewBox="0 0 1238.5 225.3" style="enable-background:new 0 0 1238.5 225.3;" xml:space="preserve">
<style type="text/css">
	.st0{fill:#A9A41D;}
	.st1{fill:#FFFFFF;}
</style>
<g>
	<path class="st0" d="M112.6,0C50.5,0,0,50.5,0,112.6c0,62.1,50.5,112.6,112.6,112.6s112.6-50.5,112.6-112.6
		C225.2,50.5,174.7,0,112.6,0z M190.8,50.2c6.3,7.9,11.4,16.7,15.1,26.1c0.5,1.4,1,2.7,1.5,4.1c0.5,1.5,1,3,1.5,4.8l0.3,1.1
		c0.4,1.6,0.8,3,1.1,4.4l0.1,0.5c0.8,3.6,1.4,7.3,1.8,10.9c0.1,1.2-0.6,2-1.3,2.3c-0.7,0.4-1.8,0.4-2.7-0.4l-90.4-88.3
		c-0.6-0.6-0.6-1.4-0.4-1.9c0.2-0.5,0.8-1.1,1.6-1.1c0,0,0,0,0.1,0c0,0,3.4,0.3,4.5,0.4l0.9,0.1c4.1,0.5,8.1,1.2,12,2.2l0.5,0.1
		c1.1,0.3,2.2,0.6,3.3,0.9l0.4,0.1c0.3,0.1,0.5,0.1,0.8,0.2c1,0.3,2,0.6,3,1l0.4,0.1c0.3,0.1,0.6,0.2,1,0.3c1,0.3,2,0.7,2.9,1.1
		c0.5,0.2,0.9,0.4,1.4,0.5c1,0.4,1.9,0.8,2.9,1.2c0.4,0.2,0.8,0.4,1.3,0.6c1,0.4,1.9,0.9,2.9,1.4l1.1,0.6c1,0.5,2,1,3,1.6l0.7,0.4
		c5.9,3.4,11.5,7.3,16.7,11.8l0.5,0.4c0.9,0.8,1.8,1.6,2.7,2.5l0.6,0.6c0.9,0.8,1.7,1.7,2.5,2.6l0.5,0.6c0.8,0.9,1.7,1.8,2.5,2.7
		l0.4,0.5c0.9,1,1.7,2,2.5,3L190.8,50.2z M16.2,139.7c-1.3-4.5-2.2-9.1-2.9-13.9c-0.1-0.7,0.2-1.5,0.7-2L111,29.7
		c0.9-0.9,2.4-0.9,3.3,0L138.1,53c0.8,0.8,0.8,1.9,0.5,2.6c-0.3,0.7-1,1.5-2.2,1.5h-28.6c-0.3,0-0.6,0-0.9,0.1l0,0l-0.4,0.1
		c-0.1,0-0.1,0-0.2,0.1l-0.2,0.1v0c-0.3,0.1-0.5,0.3-0.8,0.6l-85.4,82.9c-0.6,0.6-1.4,0.8-2.2,0.6C17.1,141.2,16.5,140.6,16.2,139.7
		L16.2,139.7L16.2,139.7z M120.6,176.7c4-12.3,15.3-20.5,28.1-20.5c12.9,0,24.2,8.2,28.1,20.5c0.2,0.7,0.1,1.4-0.3,2
		c-0.4,0.6-1.2,1-1.9,1h-51.8c-0.8,0-1.5-0.4-1.9-1C120.5,178.1,120.4,177.4,120.6,176.7z M122.7,152.8c-0.7,0.6-1.7,0.7-2.5,0.3
		c-0.8-0.4-1.3-1.2-1.3-2.1v-30.1c0-1.3,1-2.3,2.3-2.3h41.7c1.9,0,3.4-1.5,3.4-3.4v-5.7c0-1.9-1.5-3.4-3.4-3.4h-41.7
		c-1.3,0-2.3-1-2.3-2.3v-32c0-1.3,1-2.3,2.3-2.3H154c0.6,0,1.2,0.2,1.6,0.7l55.4,54.1c0.5,0.5,0.8,1.3,0.7,2c-0.2,1.5-0.4,3-0.7,4.6
		l-0.1,0.6c-0.2,1.3-0.5,2.6-0.8,3.8l-0.2,1c-0.3,1.2-0.6,2.3-0.9,3.5l-0.3,1c-0.4,1.5-0.9,3-1.4,4.4c-2,5.9-4.7,11.7-7.8,17.1
		l-0.2,0.3c-1.1,1.9-2.3,3.8-3.6,5.8c-0.2,0.3-0.4,0.6-0.6,0.9l-0.4,0.6c-0.8,1.1-1.6,2.2-2.4,3.3c-0.6,0.6-1.4,0.8-2.2,0.6
		c-0.8-0.2-1.4-0.7-1.7-1.5c-5.8-17-21.8-28.5-39.7-28.5C139.2,143.7,130.2,146.9,122.7,152.8z M16.3,85.2
		c1.8-6.4,4.3-12.7,7.5-18.8l0.1-0.1c0.6-1.1,1.2-2.2,1.8-3.3l0.3-0.5c0.6-1.1,1.2-2.1,1.9-3.2l0.1-0.2c2.7-4.3,5.8-8.5,9.2-12.3
		l0.5-0.5c0.7-0.8,1.5-1.6,2.2-2.4l0.7-0.7c0.8-0.8,1.5-1.6,2.3-2.3l0.6-0.6c3.5-3.4,7.3-6.5,11.3-9.3l0.9-0.6
		c0.8-0.6,1.7-1.1,2.5-1.7c0.4-0.2,0.7-0.5,1.1-0.7c0.8-0.5,1.7-1.1,2.6-1.6c0.2-0.1,0.5-0.3,0.7-0.4l0.3-0.2c0.9-0.5,1.8-1,2.7-1.5
		l0.2-0.1c2.2-1.2,4.5-2.3,6.7-3.3l0.4-0.2c0.9-0.4,1.9-0.8,2.8-1.2l0.4-0.2c0.3-0.1,0.6-0.2,0.9-0.4c0.9-0.3,1.8-0.7,2.7-1
		c0.5-0.2,1-0.3,1.4-0.5c0.9-0.3,1.8-0.6,2.8-0.9c0.3-0.1,0.7-0.2,1.1-0.3l0.3-0.1c1-0.3,1.9-0.5,2.9-0.8l0.8-0.2
		c2.3-0.5,4.6-1,6.9-1.4l0.6-0.1c0.1,0,0.2,0,0.4,0c0.6,0,1.2,0.2,1.7,0.7l3.3,3.3c0.5,0.4,0.7,1,0.7,1.7c0,0.6-0.3,1.2-0.7,1.7
		l-84.9,82.5c-0.8,0.8-1.9,0.8-2.6,0.5c-0.7-0.3-1.4-1-1.4-2.1l0.1-0.7c0-0.4,0.1-0.8,0.1-1.2l0.1-0.4c0.1-0.6,0.1-1.1,0.2-1.7
		c0.3-1.8,0.6-3.6,0.9-5.4c0.1-0.4,0.2-0.8,0.3-1.2l0.1-0.2c0.5-2.2,0.9-4.1,1.4-5.7L16.3,85.2z M77.9,102.1l24.5-23.7
		c0.5-0.5,1.1-0.7,1.6-0.7c0.3,0,0.7,0.1,0.9,0.2c0.7,0.3,1.4,1,1.4,2.2v23.7c0,1.3-1,2.3-2.3,2.3H79.6c-1.2,0-1.9-0.8-2.2-1.5
		C77.1,103.9,77.1,102.9,77.9,102.1z M48.4,176.7c4-12.3,15.3-20.5,28.1-20.5c12.9,0,24.2,8.2,28.1,20.5c0.2,0.7,0.1,1.4-0.3,2
		c-0.4,0.6-1.2,1-1.9,1H50.6c-0.8,0-1.5-0.4-1.9-1C48.3,178.1,48.1,177.4,48.4,176.7z M23.6,154.8l36.7-35.6c0.4-0.4,1-0.7,1.6-0.7
		H104c1.3,0,2.3,1,2.3,2.3V151c0,0.9-0.5,1.7-1.3,2.1c-0.8,0.4-1.8,0.3-2.5-0.3c-7.5-6-16.5-9.1-26.1-9.1c-18,0-34,11.4-39.8,28.4
		c-0.3,0.8-0.9,1.3-1.6,1.5c-0.8,0.2-1.6-0.1-2.1-0.6c-0.1-0.2-0.3-0.4-0.4-0.6c-0.2-0.2-0.4-0.5-0.6-0.7l-0.6-0.8
		c-1.3-1.8-2.4-3.5-3.4-5.1l-0.4-0.7c-0.6-0.9-1.1-1.9-1.7-2.8l-0.3-0.4c-0.2-0.3-0.3-0.6-0.5-0.8c-0.5-0.9-0.9-1.7-1.4-2.6
		l-0.2-0.5c-0.1-0.2-0.3-0.6-0.3-0.6C22.7,156.6,22.9,155.5,23.6,154.8z M102.8,212.3c-0.3,0-0.6-0.1-0.9-0.1
		c-1.6-0.2-3-0.3-4.3-0.6c-0.2,0-0.4-0.1-0.7-0.1l-0.5-0.1c-1.1-0.2-2.1-0.4-3.2-0.6c-0.6-0.1-1.1-0.2-1.7-0.4
		c-0.9-0.2-1.8-0.4-2.7-0.6l-0.5-0.1c-0.4-0.1-0.8-0.2-1.1-0.3c-1.2-0.3-2.5-0.7-3.7-1.1c-0.6-0.2-1.1-0.3-1.6-0.5l-0.5-0.1
		c-0.6-0.2-1.3-0.4-1.9-0.6c-0.8-0.3-1.5-0.5-2.3-0.8c-0.3-0.1-0.7-0.3-1-0.4l-0.4-0.2c-1.8-0.7-3.5-1.4-5.1-2.2l-0.5-0.2
		c-0.9-0.4-1.8-0.9-2.7-1.3l-0.8-0.4c-1.6-0.8-3.3-1.8-5.3-3c-0.4-0.2-0.7-0.4-1.1-0.7l-0.4-0.2c-0.6-0.4-2.2-1.4-2.2-1.4
		c-0.8-0.6-1-1.6-0.7-2.6c0.3-0.7,1-1.5,2.2-1.5H166c1,0,1.8,0.6,2.2,1.5c0.3,0.9,0.1,1.9-0.6,2.6l-0.7,0.5
		c-0.4,0.3-0.9,0.6-1.3,0.8l-0.1,0.1c-0.4,0.3-0.9,0.5-1.3,0.8c-2.1,1.3-3.9,2.3-5.6,3.2l-0.8,0.4c-0.9,0.5-1.8,0.9-2.7,1.3
		l-0.5,0.2c-1.6,0.7-3.3,1.5-5.1,2.2l-0.4,0.2c-0.3,0.1-0.7,0.3-1,0.4c-0.8,0.3-1.5,0.6-2.3,0.8c-0.6,0.2-1.3,0.4-1.9,0.6l-0.4,0.1
		c-0.6,0.2-1.1,0.4-1.7,0.6c-1.2,0.4-2.5,0.7-3.7,1.1c-0.4,0.1-0.7,0.2-1.1,0.3l-0.6,0.1c-0.9,0.2-1.8,0.4-2.7,0.6
		c-0.6,0.1-1.1,0.2-1.7,0.4c-1.1,0.2-2.1,0.4-3.2,0.6l-0.5,0.1c-0.2,0-0.4,0.1-0.7,0.1c-1.4,0.2-2.8,0.4-4.3,0.6
		c-0.3,0-0.6,0.1-0.9,0.1l-0.4,0c-1.1,0.1-2.3,0.2-3.4,0.3l-0.3,0c-0.4,0-0.7,0-1.1,0.1c-3.5,0.2-5.7,0.2-9.2,0
		c-0.4,0-0.7,0-1.1-0.1l-0.3,0c-1.1-0.1-2.3-0.2-3.4-0.3L102.8,212.3z"/>
	<g>
		<path d="M293.9,180.5v1.8c0,0.2-0.2,0.4-0.4,0.4h-10.1v28.6c0,0.2-0.2,0.4-0.4,0.4H281c-0.2,0-0.4-0.2-0.4-0.4v-28.6h-10.1
			c-0.2,0-0.4-0.2-0.4-0.4v-1.8c0-0.2,0.2-0.4,0.4-0.4h22.9C293.7,180.2,293.9,180.3,293.9,180.5z M311.7,188.2l9.7,23
			c0,0.1,0,0.2,0,0.3c-0.1,0.1-0.2,0.2-0.3,0.2h-1.8c-0.1,0-0.3-0.1-0.3-0.2l-3.2-7.7H306l-3.2,7.7c-0.1,0.1-0.2,0.2-0.3,0.2h-1.7
			c-0.1,0-0.2-0.1-0.3-0.2c-0.1-0.1-0.1-0.2,0-0.3l9.6-23c0.1-0.1,0.2-0.2,0.3-0.2h1C311.5,188,311.6,188,311.7,188.2z M311.5,193.8
			c-0.3-0.7-0.5-1.3-0.7-1.7c-0.2,0.7-0.4,1.2-0.6,1.7l-3.3,8h7.9L311.5,193.8z M332.1,188.1h-1.6c-0.2,0-0.4,0.2-0.4,0.4v22.9
			c0,0.2,0.2,0.4,0.4,0.4h1.6c0.2,0,0.4-0.2,0.4-0.4v-22.9C332.5,188.3,332.3,188.1,332.1,188.1z M373.9,188.1h-1.7
			c-0.2,0-0.3,0.1-0.3,0.2l-5.9,17.4c-0.2,0.6-0.4,1.2-0.6,1.6l-0.5-1.6l-5.7-17c0-0.1-0.2-0.2-0.3-0.2h-1c-0.1,0-0.3,0.1-0.3,0.2
			l-6.6,16.9c-0.3,0.7-0.5,1.4-0.7,1.8c-0.2-0.7-0.4-1.4-0.6-2l-5.8-17.2c0-0.1-0.2-0.2-0.3-0.2h-1.8c-0.1,0-0.2,0.1-0.3,0.2
			s-0.1,0.2,0,0.3l8,23c0,0.1,0.2,0.2,0.3,0.2h1c0.1,0,0.3-0.1,0.3-0.2l6.7-16.9c0.2-0.6,0.5-1.1,0.6-1.5c0.1,0.3,0.2,0.6,0.3,0.9
			c0.1,0.5,2.3,6.5,6.1,17.6c0,0.1,0.2,0.2,0.3,0.2h1c0.2,0,0.3-0.1,0.3-0.2l8-23c0-0.1,0-0.2,0-0.3
			C374.1,188.2,374,188.1,373.9,188.1z M389,188.2l9.7,23c0,0.1,0,0.2,0,0.3c-0.1,0.1-0.2,0.2-0.3,0.2h-1.8c-0.1,0-0.3-0.1-0.3-0.2
			l-3.2-7.7h-9.7l-3.2,7.7c-0.1,0.1-0.2,0.2-0.3,0.2h-1.7c-0.1,0-0.2-0.1-0.3-0.2c-0.1-0.1-0.1-0.2,0-0.3l9.6-23
			c0.1-0.1,0.2-0.2,0.3-0.2h1C388.8,188,388.9,188,389,188.2z M388.8,193.8c-0.3-0.7-0.5-1.3-0.7-1.7c-0.2,0.7-0.4,1.2-0.6,1.7
			l-3.3,8h7.9L388.8,193.8z M427.4,188.1h-1.6c-0.2,0-0.4,0.2-0.4,0.4V205c0,0.9,0,1.6,0,2.2c0,0,0,0,0,0c-0.5-0.6-1-1.2-1.5-1.8
			l-15-17.3c-0.1-0.1-0.2-0.1-0.3-0.1h-0.8c-0.2,0-0.4,0.2-0.4,0.4v23c0,0.2,0.2,0.4,0.4,0.4h1.6c0.2,0,0.4-0.2,0.4-0.4v-16.5
			c0-0.9,0-1.7,0-2.2l1.3,1.5l15.3,17.6c0.1,0.1,0.2,0.1,0.3,0.1h0.8c0.2,0,0.4-0.2,0.4-0.4v-23
			C427.8,188.3,427.6,188.1,427.4,188.1z M466.9,180.2l13,31c0,0.1,0,0.2,0,0.3c-0.1,0.1-0.2,0.2-0.3,0.2h-2.3
			c-0.1,0-0.3-0.1-0.3-0.2l-4.3-10.5h-13.3l-4.3,10.5c-0.1,0.1-0.2,0.2-0.3,0.2h-2.2c-0.1,0-0.2-0.1-0.3-0.2c-0.1-0.1-0.1-0.2,0-0.3
			l13-31c0.1-0.1,0.2-0.2,0.3-0.2h1.2C466.7,180,466.9,180,466.9,180.2z M467,187.6c-0.6-1.3-1-2.1-1.2-2.7c-0.3,1-0.7,1.9-1,2.6
			l-4.5,11h11.2L467,187.6z M507.6,208.8c-1.7,0.7-4,1.1-6.6,1.1c-2.6,0-4.9-1-6.9-2.9c-2-1.9-3-4.3-3-7.1c0-2.8,0.9-5.2,2.6-7.1
			c1.7-1.9,3.8-2.9,6.3-2.9c2.6,0,5.1,0.4,7.5,1.1c0.2,0,0.4-0.1,0.5-0.2l0.4-1.3c0.1-0.2,0-0.4-0.2-0.5c-2.6-0.8-5.2-1.3-7.9-1.3
			c-3.4,0-6.2,1.2-8.3,3.5c-2.1,2.3-3.2,5.2-3.2,8.7c0,3.4,1.2,6.4,3.7,8.7c2.4,2.3,5.3,3.5,8.5,3.5c3.2,0,5.7-0.5,7.5-1.5
			c0.2-0.1,0.2-0.3,0.2-0.5l-0.5-1.1C508,208.8,507.7,208.7,507.6,208.8z M525.9,188.2l9.7,23c0,0.1,0,0.2,0,0.3
			c-0.1,0.1-0.2,0.2-0.3,0.2h-1.8c-0.1,0-0.3-0.1-0.3-0.2l-3.2-7.7h-9.7l-3.2,7.7c-0.1,0.1-0.2,0.2-0.3,0.2H515
			c-0.1,0-0.2-0.1-0.3-0.2c-0.1-0.1-0.1-0.2,0-0.3l9.6-23c0.1-0.1,0.2-0.2,0.3-0.2h1C525.7,188,525.9,188,525.9,188.2z M525.7,193.8
			c-0.3-0.7-0.5-1.3-0.7-1.7c-0.2,0.7-0.4,1.2-0.6,1.7l-3.3,8h7.9L525.7,193.8z M560.5,191.2c2.4,2.2,3.7,5.3,3.7,9.1
			c0,3.8-1.1,6.8-3.4,8.7c-2.2,1.9-5.1,2.9-8.6,2.9c-2.3,0-4.8-0.1-7.4-0.4c-0.2,0-0.3-0.2-0.3-0.4v-22.8c0-0.2,0.1-0.3,0.3-0.4
			c1.9-0.1,4.1-0.2,6.7-0.2C555,187.9,558,189,560.5,191.2z M559.1,207.4c1.7-1.5,2.6-3.9,2.6-7.1c0-3.1-1-5.7-3-7.5
			c-2-1.9-4.5-2.8-7.4-2.8c-1.9,0-3.4,0-4.6,0.1v19.4c1.4,0.1,3.1,0.2,5.3,0.2C555,209.8,557.3,209,559.1,207.4z M586.7,209.5h-9.1
			v-9.6h7.8c0.2,0,0.4-0.2,0.4-0.4v-1.4c0-0.2-0.2-0.4-0.4-0.4h-7.8v-7.6h8.7c0.2,0,0.4-0.2,0.4-0.4v-1.4c0-0.2-0.2-0.4-0.4-0.4
			h-10.7c-0.2,0-0.4,0.2-0.4,0.4v22.9c0,0.2,0.2,0.4,0.4,0.4h11c0.2,0,0.4-0.2,0.4-0.4v-1.5C587,209.7,586.9,209.5,586.7,209.5z
			 M618.1,188h-1c-0.1,0-0.3,0.1-0.3,0.2l-7.9,16.9c-0.2,0.5-0.4,0.9-0.6,1.3c-0.1-0.3-0.3-0.8-0.5-1.3l-7.1-16.9
			c-0.1-0.1-0.2-0.2-0.3-0.2h-1c-0.2,0-0.3,0.1-0.4,0.3l-3.7,23c0,0.1,0,0.2,0.1,0.3c0.1,0.1,0.2,0.1,0.3,0.1h1.6
			c0.2,0,0.3-0.1,0.4-0.3l2.6-17.3c0-0.2,0.1-0.5,0.1-0.8c0.1,0.3,0.2,0.6,0.3,0.8l6.7,16.2c0.1,0.1,0.2,0.2,0.3,0.2h1
			c0.1,0,0.3-0.1,0.3-0.2l7.5-16.2l0.5-1c0,0.3,0.1,0.6,0.1,0.9l2.5,17.4c0,0.2,0.2,0.3,0.4,0.3h1.7c0.1,0,0.2,0,0.3-0.1
			c0.1-0.1,0.1-0.2,0.1-0.3l-3.5-23C618.4,188.1,618.3,188,618.1,188z M645.2,188.1c-0.1,0-0.2,0.1-0.3,0.2l-6.7,11.4
			c-0.2,0.4-0.4,0.8-0.6,1c-0.1-0.2-0.3-0.6-0.6-1.1l-6.7-11.4c-0.1-0.1-0.2-0.2-0.3-0.2h-1.9c-0.1,0-0.2,0.1-0.3,0.2
			c-0.1,0.1-0.1,0.3,0,0.4l8.6,14.6v8.1c0,0.2,0.2,0.4,0.4,0.4h1.6c0.2,0,0.4-0.2,0.4-0.4v-8l8.6-14.7c0.1-0.1,0.1-0.3,0-0.4
			c-0.1-0.1-0.2-0.2-0.3-0.2H645.2z M691.2,191.3c2.3,2.3,3.4,5.2,3.4,8.6c0,3.4-1.2,6.3-3.4,8.6c-2.3,2.3-5.1,3.5-8.5,3.5
			c-3.4,0-6.2-1.2-8.5-3.5c-2.3-2.3-3.4-5.2-3.4-8.6c0-3.4,1.1-6.3,3.4-8.6c2.3-2.3,5.1-3.5,8.5-3.5
			C686.1,187.8,688.9,188.9,691.2,191.3z M689.5,207c1.8-1.9,2.7-4.3,2.7-7.1c0-2.8-0.9-5.2-2.7-7.1c-1.8-1.9-4.1-2.9-6.8-2.9
			c-2.7,0-5,1-6.8,2.9c-1.8,1.9-2.7,4.3-2.7,7.1c0,2.8,0.9,5.2,2.7,7.1c1.8,1.9,4.1,2.9,6.8,2.9C685.5,209.9,687.7,208.9,689.5,207z
			 M717.9,188.1h-11.7c-0.2,0-0.4,0.2-0.4,0.4v22.9c0,0.2,0.2,0.4,0.4,0.4h1.6c0.2,0,0.4-0.2,0.4-0.4v-11.4h8.9
			c0.2,0,0.4-0.2,0.4-0.4v-1.4c0-0.2-0.2-0.4-0.4-0.4h-8.9v-7.6h9.8c0.2,0,0.4-0.2,0.4-0.4v-1.4
			C718.3,188.3,718.1,188.1,717.9,188.1z M760.1,197.9c1.4,1.6,2.2,3.4,2.2,5.5c0,2.8-0.9,5-2.7,6.4c-1.8,1.5-4.2,2.2-7.3,2.2
			c-3,0-5.9-0.1-8.5-0.3c-0.2,0-0.3-0.2-0.3-0.4v-30.6c0-0.2,0.1-0.3,0.3-0.4c2.3-0.2,4.6-0.3,6.9-0.3c2.4,0,4.5,0.6,6.3,1.8
			c1.8,1.2,2.7,3,2.7,5.3c0,1.7-0.5,3.3-1.4,4.8c-0.8,1.2-1.7,2.2-2.7,2.9C757.3,195.4,758.8,196.5,760.1,197.9z M757.5,207.7
			c1.3-1.1,1.9-2.5,1.9-4.2c0-1.7-0.6-3.2-1.9-4.4c-1.2-1.3-3-2.1-5.2-2.6c-1-0.2-2.3-0.3-3.6-0.3h-2.5v13.1
			c1.3,0.1,3.4,0.2,6.3,0.2C754.5,209.4,756.2,208.8,757.5,207.7z M755.5,191.1c0.9-1.2,1.3-2.6,1.3-4.1c0-1.4-0.6-2.5-1.8-3.3
			c-1.2-0.8-2.7-1.2-4.2-1.2c-1.5,0-3,0.1-4.7,0.2v11.1h1.7c1,0,2.5,0.1,4.5,0.2C753.6,193.3,754.7,192.3,755.5,191.1z M782.4,188.2
			l9.7,23c0,0.1,0,0.2,0,0.3c-0.1,0.1-0.2,0.2-0.3,0.2h-1.8c-0.1,0-0.3-0.1-0.3-0.2l-3.2-7.7h-9.7l-3.2,7.7
			c-0.1,0.1-0.2,0.2-0.3,0.2h-1.7c-0.1,0-0.2-0.1-0.3-0.2c-0.1-0.1-0.1-0.2,0-0.3l9.6-23c0.1-0.1,0.2-0.2,0.3-0.2h1
			C782.2,188,782.3,188,782.4,188.2z M782.2,193.8c-0.3-0.7-0.5-1.3-0.7-1.7c-0.2,0.7-0.4,1.2-0.6,1.7l-3.3,8h7.9L782.2,193.8z
			 M820.8,188.1h-1.6c-0.2,0-0.4,0.2-0.4,0.4V205c0,0.9,0,1.6,0,2.2c0,0,0,0,0,0c-0.5-0.6-1-1.2-1.5-1.8l-15-17.3
			c-0.1-0.1-0.2-0.1-0.3-0.1h-0.8c-0.2,0-0.4,0.2-0.4,0.4v23c0,0.2,0.2,0.4,0.4,0.4h1.6c0.2,0,0.4-0.2,0.4-0.4v-16.5
			c0-0.9,0-1.7,0-2.2l1.3,1.5l15.3,17.6c0.1,0.1,0.2,0.1,0.3,0.1h0.8c0.2,0,0.4-0.2,0.4-0.4v-23C821.2,188.3,821,188.1,820.8,188.1z
			 M846.4,208.1c-1.4-1.2-4-4.1-7.7-8.6l9.6-10.8c0.1-0.1,0.1-0.3,0.1-0.4c-0.1-0.1-0.2-0.2-0.3-0.2H846c-0.1,0-0.2,0-0.3,0.1
			l-9.7,10.9v-10.7c0-0.2-0.2-0.4-0.4-0.4h-1.6c-0.2,0-0.4,0.2-0.4,0.4v22.9c0,0.2,0.2,0.4,0.4,0.4h1.6c0.2,0,0.4-0.2,0.4-0.4V200
			c1,1.3,2.5,3,4.5,5.3c2.1,2.4,3.4,3.9,4.1,4.5c0.7,0.6,1.4,1.2,2.3,1.5c0.9,0.4,2,0.6,3.3,0.6c0,0,0,0,0,0c0.2,0,0.4-0.2,0.4-0.4
			l0-1.1c0-0.2-0.1-0.4-0.3-0.4C849.1,210,847.7,209.3,846.4,208.1z M860.5,188.1h-1.6c-0.2,0-0.4,0.2-0.4,0.4v22.9
			c0,0.2,0.2,0.4,0.4,0.4h1.6c0.2,0,0.4-0.2,0.4-0.4v-22.9C860.9,188.3,860.7,188.1,860.5,188.1z M893.4,188.1h-1.6
			c-0.2,0-0.4,0.2-0.4,0.4V205c0,0.9,0,1.6,0,2.2c0,0,0,0,0,0c-0.5-0.6-1-1.2-1.5-1.8l-15-17.3c-0.1-0.1-0.2-0.1-0.3-0.1h-0.8
			c-0.2,0-0.4,0.2-0.4,0.4v23c0,0.2,0.2,0.4,0.4,0.4h1.6c0.2,0,0.4-0.2,0.4-0.4v-16.5c0-0.9,0-1.7,0-2.2l1.3,1.5l15.3,17.6
			c0.1,0.1,0.2,0.1,0.3,0.1h0.8c0.2,0,0.4-0.2,0.4-0.4v-23C893.7,188.3,893.6,188.1,893.4,188.1z M925,199.5h-1.6
			c-0.2,0-0.4,0.2-0.4,0.4v9.2c-1.4,0.6-3.4,0.8-6,0.8c-2.6,0-4.9-1-6.8-2.9c-1.9-1.9-2.9-4.3-2.9-7.1c0-2.8,0.9-5.2,2.6-7.1
			c1.7-1.9,3.8-2.9,6.3-2.9c2.6,0,5.1,0.4,7.5,1.1c0.2,0,0.4-0.1,0.5-0.2l0.4-1.3c0.1-0.2,0-0.4-0.2-0.5c-2.6-0.8-5.2-1.3-7.9-1.3
			c-3.4,0-6.2,1.2-8.3,3.5c-2.1,2.3-3.2,5.2-3.2,8.6c0,3.4,1.2,6.3,3.6,8.7c2.4,2.3,5.3,3.5,8.8,3.5c3.4,0,6.1-0.6,8-1.7
			c0.1-0.1,0.2-0.2,0.2-0.3v-10.2C925.4,199.7,925.2,199.5,925,199.5z M960.9,188.2l9.7,23c0,0.1,0,0.2,0,0.3
			c-0.1,0.1-0.2,0.2-0.3,0.2h-1.8c-0.1,0-0.3-0.1-0.3-0.2l-3.2-7.7h-9.7l-3.2,7.7c-0.1,0.1-0.2,0.2-0.3,0.2H950
			c-0.1,0-0.2-0.1-0.3-0.2c-0.1-0.1-0.1-0.2,0-0.3l9.6-23c0.1-0.1,0.2-0.2,0.3-0.2h1C960.7,188,960.8,188,960.9,188.2z M960.7,193.8
			c-0.3-0.7-0.5-1.3-0.7-1.7c-0.2,0.7-0.4,1.2-0.6,1.7l-3.3,8h7.9L960.7,193.8z M999.3,188.1h-1.6c-0.2,0-0.4,0.2-0.4,0.4V205
			c0,0.9,0,1.6,0,2.2c0,0,0,0,0,0c-0.5-0.6-1-1.2-1.5-1.8l-15-17.3c-0.1-0.1-0.2-0.1-0.3-0.1h-0.8c-0.2,0-0.4,0.2-0.4,0.4v23
			c0,0.2,0.2,0.4,0.4,0.4h1.6c0.2,0,0.4-0.2,0.4-0.4v-16.5c0-0.9,0-1.7,0-2.2l1.3,1.5l15.3,17.6c0.1,0.1,0.2,0.1,0.3,0.1h0.8
			c0.2,0,0.4-0.2,0.4-0.4v-23C999.6,188.3,999.5,188.1,999.3,188.1z M1028.3,191.2c2.4,2.2,3.7,5.3,3.7,9.1c0,3.8-1.1,6.8-3.4,8.7
			c-2.2,1.9-5.1,2.9-8.6,2.9c-2.3,0-4.8-0.1-7.4-0.4c-0.2,0-0.3-0.2-0.3-0.4v-22.8c0-0.2,0.1-0.3,0.3-0.4c1.9-0.1,4.1-0.2,6.7-0.2
			C1022.8,187.9,1025.9,189,1028.3,191.2z M1026.9,207.4c1.7-1.5,2.6-3.9,2.6-7.1c0-3.1-1-5.7-3-7.5c-2-1.9-4.5-2.8-7.4-2.8
			c-1.9,0-3.4,0-4.6,0.1v19.4c1.4,0.1,3.1,0.2,5.3,0.2C1022.8,209.8,1025.2,209,1026.9,207.4z M1072.3,180.2h-15.7
			c-0.2,0-0.4,0.2-0.4,0.4v30.8c0,0.2,0.2,0.4,0.4,0.4h2.1c0.2,0,0.4-0.2,0.4-0.4v-15.5h12.1c0.2,0,0.4-0.2,0.4-0.4v-1.8
			c0-0.2-0.2-0.4-0.4-0.4H1059v-10.6h13.3c0.2,0,0.4-0.2,0.4-0.4v-1.8C1072.7,180.3,1072.5,180.2,1072.3,180.2z M1086.5,188.1h-1.6
			c-0.2,0-0.4,0.2-0.4,0.4v22.9c0,0.2,0.2,0.4,0.4,0.4h1.6c0.2,0,0.4-0.2,0.4-0.4v-22.9C1086.9,188.3,1086.7,188.1,1086.5,188.1z
			 M1119.4,188.1h-1.6c-0.2,0-0.4,0.2-0.4,0.4V205c0,0.9,0,1.6,0,2.2c0,0,0,0,0,0c-0.5-0.6-1-1.2-1.5-1.8l-15-17.3
			c-0.1-0.1-0.2-0.1-0.3-0.1h-0.8c-0.2,0-0.4,0.2-0.4,0.4v23c0,0.2,0.2,0.4,0.4,0.4h1.6c0.2,0,0.4-0.2,0.4-0.4v-16.5
			c0-0.9,0-1.7,0-2.2l1.3,1.5l15.3,17.6c0.1,0.1,0.2,0.1,0.3,0.1h0.8c0.2,0,0.4-0.2,0.4-0.4v-23
			C1119.7,188.3,1119.6,188.1,1119.4,188.1z M1139.7,188.2l9.7,23c0,0.1,0,0.2,0,0.3c-0.1,0.1-0.2,0.2-0.3,0.2h-1.8
			c-0.1,0-0.3-0.1-0.3-0.2l-3.2-7.7h-9.7l-3.2,7.7c-0.1,0.1-0.2,0.2-0.3,0.2h-1.7c-0.1,0-0.2-0.1-0.3-0.2c-0.1-0.1-0.1-0.2,0-0.3
			l9.6-23c0.1-0.1,0.2-0.2,0.3-0.2h1C1139.6,188,1139.7,188,1139.7,188.2z M1139.6,193.8c-0.3-0.7-0.5-1.3-0.7-1.7
			c-0.2,0.7-0.4,1.2-0.6,1.7l-3.3,8h7.9L1139.6,193.8z M1178.1,188.1h-1.6c-0.2,0-0.4,0.2-0.4,0.4V205c0,0.9,0,1.6,0,2.2
			c0,0,0,0,0,0c-0.5-0.6-1-1.2-1.5-1.8l-15-17.3c-0.1-0.1-0.2-0.1-0.3-0.1h-0.8c-0.2,0-0.4,0.2-0.4,0.4v23c0,0.2,0.2,0.4,0.4,0.4
			h1.6c0.2,0,0.4-0.2,0.4-0.4v-16.5c0-0.9,0-1.7,0-2.2l1.3,1.5l15.3,17.6c0.1,0.1,0.2,0.1,0.3,0.1h0.8c0.2,0,0.4-0.2,0.4-0.4v-23
			C1178.5,188.3,1178.3,188.1,1178.1,188.1z M1208.6,208.8c-1.7,0.7-4,1.1-6.6,1.1c-2.6,0-4.9-1-6.9-2.9c-2-1.9-3-4.3-3-7.1
			c0-2.8,0.9-5.2,2.6-7.1c1.7-1.9,3.8-2.9,6.3-2.9c2.6,0,5.1,0.4,7.5,1.1c0.2,0,0.4-0.1,0.5-0.2l0.4-1.3c0.1-0.2,0-0.4-0.2-0.5
			c-2.6-0.8-5.2-1.3-7.9-1.3c-3.4,0-6.2,1.2-8.3,3.5c-2.1,2.3-3.2,5.2-3.2,8.7c0,3.4,1.2,6.4,3.7,8.7c2.4,2.3,5.3,3.5,8.5,3.5
			c3.2,0,5.7-0.5,7.5-1.5c0.2-0.1,0.2-0.3,0.2-0.5l-0.5-1.1C1209,208.8,1208.7,208.7,1208.6,208.8z M1230.9,209.5h-9.1v-9.6h7.8
			c0.2,0,0.4-0.2,0.4-0.4v-1.4c0-0.2-0.2-0.4-0.4-0.4h-7.8v-7.6h8.7c0.2,0,0.4-0.2,0.4-0.4v-1.4c0-0.2-0.2-0.4-0.4-0.4h-10.7
			c-0.2,0-0.4,0.2-0.4,0.4v22.9c0,0.2,0.2,0.4,0.4,0.4h11c0.2,0,0.4-0.2,0.4-0.4v-1.5C1231.3,209.7,1231.1,209.5,1230.9,209.5z"/>
		<path d="M371.7,82.5l-9,6.2c-0.4,0.2-0.8,0.1-1.1-0.3c-2.6-4.9-5.8-10.5-9.4-16.5c-0.2-0.3-0.5-0.4-0.8-0.3
			c-21.8,4.6-57,9.5-85.1,11.5c-0.4,0-0.7-0.2-0.8-0.6l-2.8-10.9c-0.1-0.5,0.2-0.9,0.7-0.9c5.4,0.1,10.9,0.2,16.5,0.1
			c0.2,0,0.4-0.1,0.6-0.3c10.2-12.5,20.3-30.7,26.8-45.1c0.2-0.4,0.6-0.5,1-0.3l10.4,4.9c0.4,0.2,0.6,0.7,0.3,1.1
			c-8.2,12.7-19.3,27.5-30.3,38.3c-0.5,0.5-0.1,1.3,0.5,1.2c21.2-0.4,42.9-1.9,58.6-3.5c0.5-0.1,0.8-0.7,0.5-1.1
			c-4.3-6.6-9.1-13.4-13.9-19.9c-0.2-0.3-0.2-0.7,0.1-1l2.5-2.2c0.3-0.2,0.7-0.3,1,0c12.1,10.7,27.5,28.3,34,38.5
			C372.2,81.9,372.1,82.3,371.7,82.5z M278.1,94.7h77.5c0.4,0,0.7,0.3,0.7,0.7v53.7c0,0.4-0.3,0.7-0.7,0.7h-9.2
			c-0.4,0-0.7-0.3-0.7-0.7v-8.7c0-0.4-0.3-0.7-0.7-0.7h-56.1c-0.4,0-0.7,0.3-0.7,0.7v8.6c0,0.4-0.3,0.7-0.7,0.7h-9.2
			c-0.4,0-0.7-0.3-0.7-0.7V95.4C277.4,95,277.7,94.7,278.1,94.7z M288.8,134.1h56.1c0.4,0,0.7-0.3,0.7-0.7v-32.3
			c0-0.4-0.3-0.7-0.7-0.7h-56.1c-0.4,0-0.7,0.3-0.7,0.7v32.3C288.1,133.7,288.4,134.1,288.8,134.1z M423.8,93.5L423.8,93.5
			c-0.2,1.4-0.4,2.7-0.7,4c-2.8,16.9-6.6,35.9-10,46.8c-0.1,0.4-0.6,0.6-1,0.4l-9.5-4c-0.4-0.2-0.6-0.6-0.4-1
			c5-11.1,11.1-28.6,15.9-43.3c0.5-1.4,0.9-2.8,1.4-4.2l0,0c0,0,0,0,0,0c0.1-0.2,0.2-0.3,0.3-0.4c0.2-0.1,0.4-0.1,0.6-0.1
			c0,0,0,0,0,0l0.7,0.2l2.1,0.6l0,0c0,0,0,0,0,0C423.7,92.7,423.9,93.1,423.8,93.5C423.8,93.5,423.8,93.5,423.8,93.5z M423.7,72.7
			c-5.6-5.3-12.8-10.2-19.3-13.9c-0.4-0.2-0.7-0.4-1.1-0.6c-0.4-0.2-0.8-0.1-1,0.3c0,0,0,0,0,0l0,0l-1.6,2.4
			c-0.1,0.1-0.1,0.3-0.1,0.5c0,0.2,0.1,0.3,0.2,0.4c0.5,0.6,1.1,1.2,1.6,1.8c4.7,5.1,9.5,10.6,14,16.8c0.3,0.4,0.8,0.4,1.1,0.1
			l6.1-6.6C424,73.4,424,72.9,423.7,72.7z M428,38.4c-5.2-4.3-11.9-8.3-17.7-11.4c-1.1-0.6-2.2-1.2-3.2-1.7c0,0-0.2-0.1-0.2-0.1
			c-0.3-0.2-0.8-0.1-1,0.3c0,0,0,0,0,0l0,0l-1.5,2.3c0,0,0,0,0,0c-0.1,0.2-0.2,0.4-0.1,0.6c0,0.2,0.1,0.4,0.3,0.5c0,0,0,0,0,0l0,0
			c0.7,0.7,1.4,1.4,2.1,2.1c4.7,4.5,9.8,9.7,14.4,15c0.3,0.3,0.8,0.3,1.1,0l5.9-6.6C428.4,39.1,428.4,38.7,428,38.4z M478.1,72.5
			h-10c-0.4,0-0.7,0.3-0.7,0.7v9.2c0,0.4,0.3,0.7,0.7,0.7h10c0.4,0,0.7-0.3,0.7-0.7v-9.2C478.8,72.8,478.5,72.5,478.1,72.5z
			 M485.9,47.9c0-0.4-0.3-0.7-0.7-0.7h-24.8c-0.4,0-0.7,0.3-0.7,0.7v3.4c0,0.4,0.3,0.7,0.7,0.7h24.8c0.4,0,0.7-0.3,0.7-0.7V47.9z
			 M485.8,68.7v18.5c0,0.4-0.3,0.7-0.7,0.7h-24c-0.4,0-0.7-0.3-0.7-0.7V68.7c0-0.4,0.3-0.7,0.7-0.7h24
			C485.5,67.9,485.8,68.3,485.8,68.7z M485.8,58.2c0-0.4-0.3-0.7-0.7-0.7h-24.5c-0.4,0-0.7,0.3-0.7,0.7v3.4c0,0.4,0.3,0.7,0.7,0.7
			h24.5c0.4,0,0.7-0.3,0.7-0.7V58.2z M514.8,119.5h-67.4c-0.5,0-0.9-0.5-0.7-1l2.3-6.2c0.1-0.3,0.4-0.5,0.7-0.5h59.3
			c0.4,0,0.7-0.3,0.7-0.7V94.5c0-0.4-0.3-0.7-0.7-0.7h-72.7c-0.4,0-0.7,0.3-0.7,0.7v3.8c0,0.4,0.3,0.7,0.7,0.7h63.3
			c0.4,0,0.7,0.3,0.7,0.7v6.4c0,0.4-0.3,0.7-0.7,0.7H451c-0.1,0-0.2,0-0.3-0.1l-7.8-3.8c-0.4-0.2-0.9,0-1,0.4
			c-2.2,7.4-6.8,19.4-10.3,26.9c-0.2,0.4,0.1,0.9,0.5,1l8,1.7c0.3,0.1,0.7-0.1,0.8-0.4c1-2.4,2-4.8,3-7.4c0.1-0.3,0.4-0.5,0.7-0.5
			h59c0.5,0,0.8,0.4,0.7,0.9c-0.8,4.1-1.9,8.4-2.6,10.6c-2.4,6.8-5.8,7.1-26,1.8c-0.4-0.1-0.7,0.1-0.9,0.4l-1.1,2.8
			c-0.1,0.4,0,0.8,0.4,0.9c20.1,10.7,32.8,10.5,37-2.9c1.7-5.6,3.3-12.3,4.4-19C515.6,119.9,515.2,119.5,514.8,119.5z M489.5,37
			c0,0-12.7,0-12.7,0c-0.1,0-0.2-0.2-0.1-0.4l0.3-0.4l2.4-3.5c0.2-0.3,0.1-0.8-0.2-1.1c-3.5-2.2-7.1-3.9-10.4-5.2
			c-1.3-0.5-2.6-1-3.8-1.4c-0.2-0.1-0.4-0.1-0.6-0.2c-0.1,0-0.4,0-0.5,0c-0.2,0.1-0.3,0.2-0.4,0.4l-0.9,1.9l-0.1,0.2
			c-0.2,0.3-0.1,0.7,0.3,0.9c1.1,0.8,2.3,1.7,3.4,2.5c2,1.5,4,3.1,6,4.9c0.5,0.5,0.2,1.3-0.5,1.3h-15.5c-0.4,0-0.7,0.3-0.7,0.7v3.5
			c0,0.4,0.3,0.7,0.7,0.7h33.3c0.4,0,0.7-0.3,0.7-0.7v-3.5C490.2,37.3,489.9,37,489.5,37z M435.6,73.8c0,0-0.2,0-0.2,0l-1.9-0.4l0,0
			c0,0,0,0,0,0c-0.1,0-0.2,0-0.3,0c0,0-0.2,0.1-0.2,0.1c-0.2,0.1-0.3,0.3-0.4,0.5l-0.1,0.3c-0.2,0.7-0.5,1.6-0.7,2.3
			c-0.2,0.5-0.4,1.1-0.6,1.6c-1.5,3.8-3.5,7.5-5.9,10.8c-0.3,0.4-0.1,0.9,0.3,1.1l5.5,2.7c0.4,0.2,0.9,0,1-0.4
			c1.6-3.9,2.8-8.6,3.6-13.3c0.2-1.3,0.4-2.6,0.5-3.9c0-0.2,0.1-0.4,0.1-0.6C436.2,74.2,435.9,73.9,435.6,73.8z M444.5,77.7
			c-0.5-1.5-1.1-2.9-1.7-4.4c0,0,0-0.1-0.1-0.1c-0.1-0.4-0.5-0.6-0.9-0.5l-0.1,0l-1.8,0.4c-0.2,0-0.3,0.1-0.4,0.2
			c-0.1,0.1-0.2,0.3-0.2,0.5l0.1,0.9c0.1,0.9,0.2,1.9,0.3,2.9c0,0.3,0.1,0.6,0.1,0.9c0.4,3.7,0.7,7.4,0.8,10.9
			c0,0.4,0.4,0.8,0.9,0.7l5.6-1c0.4-0.1,0.7-0.5,0.6-0.9C446.8,85.1,445.8,81.4,444.5,77.7z M450.3,70.6
			C450.3,70.6,450.3,70.6,450.3,70.6C450.3,70.6,450.3,70.7,450.3,70.6L450.3,70.6z M458.6,84.2c-1.5-3.3-3.4-6.7-5.5-9.8
			c-0.9-1.3-1.8-2.6-2.7-3.8c0,0,0,0,0,0c-0.3-0.3-0.6-0.5-1-0.3l-0.4,0.2l-1.3,0.7c-0.2,0.1-0.4,0.2-0.5,0.4
			c-0.1,0.1-0.1,0.4,0,0.5l0.1,0.3c0.4,1.1,0.8,2.2,1.2,3.4c0.1,0.2,0.2,0.5,0.2,0.8c0.6,1.6,1.1,3.3,1.6,5c0.5,1.8,1,3.5,1.4,5.3
			c0.1,0.4,0.5,0.7,1,0.5l5.4-2.1C458.5,85.1,458.7,84.6,458.6,84.2z M521,68.5c-1.5-3.1-4.1-7.1-6.8-10.6c-1-1.3-2.1-2.6-3.1-3.6
			c-0.3-0.3-0.7-0.4-1-0.2c0,0-1,0.7-1,0.7l-0.6,0.4c0,0,0,0,0,0c-0.2,0.1-0.4,0.4-0.2,0.8c0.6,1.2,1.3,2.5,1.9,3.9
			c0,0.1,0.1,0.1,0.1,0.2c0.1,0.3,0.3,0.5,0.4,0.8c0.2,0.4,0,0.9-0.5,1c-3,0.6-6.1,1.2-9.2,1.7c-0.7,0.1-1.1-0.7-0.7-1.2
			c4.8-5.7,11.1-14.2,15.9-22.7c0.2-0.4,0-0.9-0.4-1l-6.2-2.7c-0.4-0.2-0.8,0-1,0.4c-1.2,3-2.5,6.3-4.1,9.5
			c-0.1,0.2-0.3,0.4-0.6,0.4c-1.9,0.2-3.9,0.4-5.8,0.5c-0.6,0-1-0.6-0.7-1.1c3-5,6.6-12.4,8.7-18c0.1-0.4-0.1-0.8-0.5-0.9l-6.3-1.8
			c-0.4-0.1-0.8,0.1-0.9,0.5c-1.3,6.6-3.6,14.9-6,21.2c-0.1,0.3-0.4,0.5-0.7,0.5c-0.6,0-1.2,0-1.7,0c-0.4,0-0.7,0-1.1,0
			c-0.4,0-0.8,0.4-0.7,0.8l0,0.2l1.3,4.9c0.1,0.4,0.4,0.6,0.8,0.5c0,0,0.1,0,0.1,0c2.8-0.4,6.1-1,9.7-2.1c0.6-0.2,1.2,0.5,0.9,1
			c-2.4,4.4-4.8,8.5-7.1,11.7c-0.1,0.2-0.3,0.3-0.5,0.3c-1.6,0.1-3.2,0.2-4.8,0.2c-0.5,0-0.8,0.5-0.7,0.9l1.8,6
			c0.1,0.4,0.5,0.6,0.9,0.5c6.6-1.6,14.6-3.9,21.3-7c0.4-0.2,0.8,0,1,0.4c0.8,2.1,1.6,4,2.2,5.7c0.1,0.4,0.6,0.6,1,0.4l4.6-2.2
			C521,69.3,521.1,68.9,521,68.5z M495,73.6C495,73.6,495,73.6,495,73.6L495,73.6L495,73.6z M497.6,75c0,0.1,0,0.1,0,0.2
			c-0.1,1.5-0.2,2.9-0.4,4.2c-0.5,4.3-1.4,8.2-2.8,12.1c-0.2,0.4-0.6,0.6-1,0.4l-5-2.3c-0.4-0.2-0.5-0.7-0.3-1
			c0.9-1.5,1.8-3.2,2.5-4.9c0.8-1.7,1.4-3.4,2-5.2c0.1-0.3,1-3,1.2-4l0.2-0.5c0.1-0.4,0.5-0.6,0.9-0.5c0,0,0,0,0,0l0,0l2.1,0.7
			c0,0,0,0,0,0C497.4,74.4,497.7,74.7,497.6,75z M503.1,72.7L503.1,72.7L503.1,72.7C503.1,72.7,503.1,72.7,503.1,72.7z M505.7,77.5
			c-0.6-1.6-1.1-2.8-1.8-4.4c-0.1-0.3-0.5-0.5-0.9-0.4l-1.6,0.5l-0.3,0.1c-0.4,0.1-0.6,0.5-0.5,0.8c0.9,5.2,1.2,10.4,1.4,15.4
			c0,0.5,0.4,0.8,0.9,0.7l5.4-1.1c0.4-0.1,0.7-0.5,0.6-0.9C508.1,85,507.1,81.2,505.7,77.5z M509.7,70.5l-0.2,0.1L509.7,70.5
			C509.7,70.5,509.7,70.5,509.7,70.5z M519.7,84.1c-1.7-3.5-3.9-6.9-6.2-9.9c-0.9-1.2-2-2.5-2.9-3.6c-0.2-0.3-0.6-0.3-0.9-0.2
			l-0.2,0.1l-1.6,0.9c-0.3,0.2-0.4,0.6-0.3,0.9c0.6,1.3,1.2,2.6,1.8,4c1.5,3.5,2.9,7.2,4.1,10.8c0.1,0.4,0.6,0.6,1,0.4l4.9-2.5
			C519.8,84.9,519.9,84.5,519.7,84.1z M458.5,66.7c-1.4-2.6-3.2-5.3-5.2-7.8c-1.1-1.4-1.9-2.3-3.1-3.5c-0.2-0.2-0.6-0.3-0.9-0.1
			l-1.4,0.8l-0.2,0.1c-0.3,0.2-0.4,0.7-0.2,1.1c0.4,1,1.1,2.5,1.6,3.4c0.1,0.2,0,0.3,0,0.5c-0.1,0.1-0.1,0.3-0.2,0.4
			c-0.1,0.1-0.2,0.1-0.3,0.2c-2.7,0.7-5.4,1.3-8.1,1.8c-0.7,0.1-1.2-0.7-0.7-1.2c4.8-5.4,10.6-13.2,15.3-21.4c0.2-0.4,0.1-0.8-0.3-1
			l-5.7-2.8c-0.4-0.2-0.8,0-1,0.4c-1.1,3-2.6,6-4.1,9.1c-0.1,0.2-0.3,0.4-0.6,0.4c-1.9,0.2-3.8,0.4-5.7,0.5c-0.6,0-1-0.6-0.7-1.1
			c2.8-4.8,6.1-11.3,9-17.9c0.2-0.4,0-0.9-0.5-1l-6.5-1.9c-0.4-0.1-0.8,0.1-0.9,0.5c-1.5,6.5-3.7,14.9-6.3,21.2
			c-0.1,0.3-0.4,0.4-0.7,0.5c-0.7,0-1.3,0-2,0c-0.4,0-0.7,0-1.1,0c-0.4,0-0.8,0.4-0.7,0.8l1.2,5.7c0.1,0.4,0.4,0.6,0.8,0.6
			c2.8-0.4,6.3-1.2,10-2.3c0.6-0.2,1.2,0.5,0.9,1.1c-2.2,4-4.6,7.7-6.8,10.7c-0.1,0.2-0.3,0.3-0.5,0.3c-1.7,0.2-3.5,0.4-5.2,0.6
			c-0.5,0-0.8,0.5-0.6,0.9l1.8,5.7c0.1,0.4,0.5,0.6,0.8,0.5c6.3-1.3,13.9-4.1,20.5-7c0.4-0.2,0.8,0,1,0.4l1.4,3.8
			c0.2,0.4,0.6,0.6,1,0.4l4.6-2.2C458.6,67.5,458.7,67.1,458.5,66.7z M634.5,102.2l9.2,5.5c0.4,0.2,0.5,0.7,0.2,1.1
			c-6.5,9.2-16.3,19.9-23.4,25.9c-0.3,0.2-0.7,0.2-1,0l-2.3-2.1c-0.3-0.2-0.3-0.6-0.1-0.9c5.5-7.7,12.2-19.4,16.3-29
			C633.7,102.1,634.1,102,634.5,102.2z M580.2,134.3l8.8-5c0.4-0.2,0.5-0.7,0.3-1c-5.5-8.6-13.9-19.3-21.1-26.2
			c-0.3-0.3-0.7-0.3-1,0l-2.5,2c-0.3,0.2-0.4,0.6-0.2,0.9c5,8.7,10.7,19.7,14.6,29C579.3,134.4,579.8,134.5,580.2,134.3z
			 M656.8,138.5h-46.6c-0.4,0-0.7-0.3-0.7-0.7V98.2c0-0.4,0.3-0.7,0.7-0.7H651c0.4,0,0.7-0.3,0.7-0.7v-4.2c0-0.4-0.3-0.7-0.7-0.7
			h-40.8c-0.4,0-0.7-0.3-0.7-0.7V74.3c0-0.4,0.3-0.7,0.7-0.7h21.7c0.4,0,0.7-0.3,0.7-0.7v-4.2c0-0.4-0.3-0.7-0.7-0.7h-55.4
			c-0.4,0-0.7,0.3-0.7,0.7v4.2c0,0.4,0.3,0.7,0.7,0.7h21.3c0.4,0,0.7,0.3,0.7,0.7v16.9c0,0.4-0.3,0.7-0.7,0.7h-40.8
			c-0.4,0-0.7,0.3-0.7,0.7v4.2c0,0.4,0.3,0.7,0.7,0.7h40.8c0.4,0,0.7,0.3,0.7,0.7v39.5c0,0.4-0.3,0.7-0.7,0.7h-46.2
			c-0.4,0-0.7,0.3-0.7,0.7v5.2c0,0.4,0.3,0.7,0.7,0.7h105.2c0.4,0,0.7-0.3,0.7-0.7v-5.2C657.5,138.8,657.2,138.5,656.8,138.5z
			 M544.5,83C544.5,83,544.5,83,544.5,83l-0.1-0.3L544.5,83z M664.5,68.7c-16.3-5.1-38.7-15.2-55.9-34.2c-0.2-0.2-0.3-0.6-0.1-0.9
			l2.6-4c0.3-0.4,0.1-0.9-0.4-1.1l-10.9-4.1c-0.3-0.1-0.7,0-0.9,0.3c-11.7,23.2-32.7,42-51.7,52.5c-0.1,0.1-0.2,0.1-0.3,0.2
			c-1.2,0.6-2.3,1.3-3.5,1.8c-0.3,0.2-0.4,0.6-0.3,0.9l1.1,2.5l0.1,0.3c0.2,0.3,0.6,0.5,0.9,0.4c0.8-0.3,1.6-0.7,2.4-1.1
			c0.6-0.3,1.1-0.5,1.7-0.7c21-9.4,41-24.2,55.4-42.8c0.3-0.4,0.9-0.4,1.1,0c12.3,17.6,33.2,33.1,52.4,41.1c0.3,0.1,0.7,0,0.9-0.3
			l5.6-9.8C665.2,69.4,665,68.9,664.5,68.7z M739,115.9h-11.4c-0.4,0-0.7,0.3-0.7,0.7v27.9c0,0.4-0.3,0.7-0.7,0.7H719
			c-0.4,0-0.7-0.3-0.7-0.7v-27.9c0-0.4-0.3-0.7-0.7-0.7h-11c-0.4,0-0.7-0.3-0.7-0.7V111c0-0.4,0.3-0.7,0.7-0.7h18.2
			c0.3,0,0.6-0.2,0.7-0.5c2.7-7,4.8-14.3,6.3-21.5c0.1-0.4,0.6-0.7,1-0.5l6.8,2.6c0.4,0.2,0.6,0.6,0.4,1c-3,6.7-5.7,12.3-9.5,17.7
			c-0.3,0.5,0,1.2,0.6,1.2h8c0.4,0,0.7,0.3,0.7,0.7v4.2C739.7,115.5,739.4,115.9,739,115.9z M744.6,47.4c0.4,0,0.7,0.3,0.7,0.7v21.3
			c0,0.4-0.3,0.7-0.7,0.7h-43c-0.4,0-0.7-0.3-0.7-0.7V48.2c0-0.4,0.3-0.7,0.7-0.7H744.6z M736.7,53.7c0-0.4-0.3-0.7-0.7-0.7h-25.8
			c-0.4,0-0.7,0.3-0.7,0.7V64c0,0.4,0.3,0.7,0.7,0.7H736c0.4,0,0.7-0.3,0.7-0.7V53.7z M757.8,38.3v-4.2c0-0.4-0.3-0.7-0.7-0.7h-67.7
			c-0.4,0-0.7,0.3-0.7,0.7v4.2c0,0.4,0.3,0.7,0.7,0.7H757C757.4,39,757.8,38.7,757.8,38.3z M722.1,105.3c-2.8-5.6-5.7-10.2-8.8-14.2
			c-0.6-0.8-1.3-1.6-1.9-2.3c-0.2-0.2-0.4-0.5-0.6-0.6c-0.2-0.1-0.6,0-0.7,0.1l-2.1,1.3c-0.3,0.2-0.4,0.4-0.5,0.6
			c0,0.1,0,0.2,0.1,0.3l0.1,0.2c0.6,1.2,1.1,2.4,1.7,3.6c2,4.4,3.8,8.8,5.7,14.3c0.1,0.4,0.6,0.6,1,0.4l5.7-2.8
			C722.1,106.1,722.3,105.6,722.1,105.3z M809.1,145.4c0.1,0.4-0.1,0.8-0.5,0.9l-8.1,2.4c-0.4,0.1-0.8-0.1-0.9-0.6
			c-0.7-3.9-1.8-8-2.8-12.2c-0.1-0.4-0.6-0.7-1-0.5c-12.1,5.7-24.6,10-36.6,12.9c-0.4,0.1-0.7-0.1-0.9-0.5l-3-8.8
			c-0.1-0.4,0.2-0.9,0.6-1c6.5-0.6,12.6-1.6,18.4-2.7c0.3-0.1,0.6-0.4,0.6-0.7v-29.2c0-0.4-0.3-0.7-0.7-0.7h-7.5
			c-0.4,0-0.7,0.3-0.7,0.7v9c0,0.4-0.3,0.7-0.7,0.7h-7.1c-0.4,0-0.7-0.3-0.7-0.7V53c0-0.4,0.3-0.7,0.7-0.7h16.1
			c0.4,0,0.7-0.3,0.7-0.7V26.6c0-0.4,0.3-0.7,0.7-0.7h8.3c0.4,0,0.7,0.3,0.7,0.7v24.9c0,0.4,0.3,0.7,0.7,0.7h16.2
			c0.4,0,0.7,0.3,0.7,0.7v57.2c0,0.4-0.3,0.7-0.7,0.7h-7.2c-0.4,0-0.7-0.3-0.7-0.7v-4.7c0-0.4-0.3-0.7-0.7-0.7h-7.5
			c-0.4,0-0.7,0.3-0.7,0.7v26.6c0,0.5,0.4,0.8,0.9,0.7c3-0.7,6-1.5,8.8-2.3c0.4-0.1,0.6-0.5,0.5-0.9c-1.1-4.1-2.3-8-3.5-11.6
			l-0.1-0.3c-0.2-0.4,0-0.8,0.4-1l0.1,0l2.6-1.3c0.2-0.1,0.3-0.1,0.5-0.1c0.2,0,0.3,0.1,0.4,0.3c0.7,1,1.4,2.2,2.1,3.5
			C801.7,126.8,806.6,137.8,809.1,145.4z M775.6,58.6c0-0.4-0.3-0.7-0.7-0.7h-8.2c-0.4,0-0.7,0.3-0.7,0.7v39.8
			c0,0.4,0.3,0.7,0.7,0.7h8.2c0.4,0,0.7-0.3,0.7-0.7V58.6z M784.9,99.1h8c0.4,0,0.7-0.3,0.7-0.7V58.6c0-0.4-0.3-0.7-0.7-0.7h-8
			c-0.4,0-0.7,0.3-0.7,0.7v39.8C784.1,98.8,784.5,99.1,784.9,99.1z M751.8,78.8H694c-0.4,0-0.7,0.3-0.7,0.7v69.8
			c0,0.4,0.3,0.7,0.7,0.7h7.8c0.4,0,0.7-0.3,0.7-0.7V85.1c0-0.4,0.3-0.7,0.7-0.7h39.5c0.4,0,0.7,0.3,0.7,0.7v52.8
			c0,4.4-1.5,5.5-8.5,4.9c-1.1-0.1-2.2-0.2-3.6-0.4c-0.1,0-0.3,0-0.4-0.1c-0.4,0-0.7,0.2-0.8,0.6l-0.5,2.6l0,0.1
			c-0.1,0.2,0,0.4,0.1,0.5c0.1,0.2,0.2,0.3,0.4,0.3c0.1,0,0.1,0.1,0.2,0.1c1.2,0.5,2.3,0.9,3.5,1.3c9.4,3,18.7,2.3,18.7-7V79.5
			C752.5,79.1,752.2,78.8,751.8,78.8z M878.6,133.6V73.9c0-0.4-0.3-0.7-0.7-0.7h-23.5c-0.5,0-0.8-0.5-0.7-0.9
			c2.6-8.7,4.5-18.3,5.3-28.4c0-0.4,0.3-0.7,0.7-0.7h22c0.4,0,0.7-0.3,0.7-0.7V38c0-0.4-0.3-0.7-0.7-0.7h-47.3
			c-0.4,0-0.7,0.3-0.7,0.7v4.4c0,0.4,0.3,0.7,0.7,0.7h14c0.4,0,0.8,0.4,0.7,0.8c-1.6,24-7.8,45.5-16,58.8c-0.7,1.1-1.4,2.2-2.1,3.2
			c-0.1,0.2-0.1,0.3-0.1,0.5c0,0.2,0.1,0.3,0.2,0.5l0,0.1l2.1,1.8c0.3,0.3,0.7,0.3,1,0c0.9-1,1.8-2.1,2.7-3.3
			c0.1-0.1,0.1-0.1,0.2-0.2c2-2.6,4-5.5,5.9-8.7c0.4-0.6,1.4-0.4,1.4,0.4v41.6c0,0.4,0.3,0.7,0.7,0.7h7.9c0.4,0,0.7-0.3,0.7-0.7
			v-12.5c0-0.4,0.3-0.7,0.7-0.7h13.8c0.4,0,0.7,0.3,0.7,0.7v7.4c0,0.4,0.3,0.7,0.7,0.7h7.9C878.3,134.3,878.6,134,878.6,133.6z
			 M869.2,119.4c0,0.4-0.3,0.7-0.7,0.7h-13.8c-0.4,0-0.7-0.3-0.7-0.7V79.1c0-0.4,0.3-0.7,0.7-0.7h13.8c0.4,0,0.7,0.3,0.7,0.7V119.4z
			 M950,83.3h-13.9c-0.4,0-0.7-0.3-0.7-0.7V39.5c0-0.4,0.3-0.7,0.7-0.7h10c0.4,0,0.7-0.3,0.7-0.7v-4c0-0.4-0.3-0.7-0.7-0.7h-59.6
			c-0.4,0-0.7,0.3-0.7,0.7v4c0,0.4,0.3,0.7,0.7,0.7h8c0.4,0,0.7,0.3,0.7,0.7v40.8V82v0.6c0,0.4-0.3,0.7-0.7,0.7h-12.5
			c-0.4,0-0.7,0.3-0.7,0.7v4.2c0,0.4,0.3,0.7,0.7,0.7h12.3c0.4,0,0.7,0.4,0.7,0.8c-0.7,26.7-5.2,41-19.7,54c-1,0.9-2,1.7-3.1,2.6
			l-0.1,0.1c-0.3,0.3-0.3,0.7,0,1l1.7,2.4c0.2,0.3,0.7,0.4,1,0.2c0,0,0,0,0,0c0.8-0.5,1.5-0.9,2.2-1.4c19.6-12.3,26.9-25.8,27.9-59
			c0-0.4,0.3-0.7,0.7-0.7h18.8c0.4,0,0.7,0.3,0.7,0.7v58.8c0,0.4,0.3,0.7,0.7,0.7h8.6c0.4,0,0.7-0.3,0.7-0.7V89.7
			c0-0.4,0.3-0.7,0.7-0.7H950c0.4,0,0.7-0.3,0.7-0.7v-4.2C950.8,83.7,950.4,83.3,950,83.3z M925.3,82.6c0,0.4-0.3,0.7-0.7,0.7H906
			c-0.4,0-0.7-0.3-0.7-0.7v-2.3V39.5c0-0.4,0.3-0.7,0.7-0.7h18.6c0.4,0,0.7,0.3,0.7,0.7V82.6z M1020.1,102.5h-37.4
			c-0.4,0-0.7,0.3-0.7,0.7v43c0,0.4,0.3,0.7,0.7,0.7h7.8c0.4,0,0.7-0.3,0.7-0.7v-8.6c0-0.4,0.3-0.7,0.7-0.7h28.1
			c0.4,0,0.7-0.3,0.7-0.7v-32.9C1020.8,102.8,1020.5,102.5,1020.1,102.5z M1011.8,130.7c0,0.4-0.3,0.7-0.7,0.7H992
			c-0.4,0-0.7-0.3-0.7-0.7v-21.8c0-0.4,0.3-0.7,0.7-0.7h19.2c0.4,0,0.7,0.3,0.7,0.7V130.7z M1027.2,54.6v-4.2c0-0.4-0.3-0.7-0.7-0.7
			c0,0-22,0-22.2,0c-0.1,0-0.3,0-0.3,0c-0.2-0.1-0.2-0.3-0.1-0.4l5.9-4.3c0.3-0.3,0.4-0.7,0.1-1c-5.1-6.1-13-13.5-18.8-17.7
			c-0.3-0.2-0.7-0.2-1,0.1l-2.1,2.2c-0.2,0.3-0.3,0.6-0.1,0.9c3.2,4.5,8.2,12.3,11.9,19.2c0.3,0.5-0.1,1.1-0.7,1.1h-22.7
			c-0.4,0-0.7,0.3-0.7,0.7v4.2c0,0.4,0.3,0.7,0.7,0.7h49.9C1026.9,55.3,1027.2,55,1027.2,54.6z M982.3,66.5c-0.4,0-0.7,0.3-0.7,0.7
			v4c0,0.4,0.3,0.7,0.7,0.7h38.7c0.4,0,0.7-0.3,0.7-0.7v-4c0-0.4-0.3-0.7-0.7-0.7H982.3z M1021.1,89.8c0.4,0,0.7-0.3,0.7-0.7v-4
			c0-0.4-0.3-0.7-0.7-0.7h-38.8c-0.4,0-0.7,0.3-0.7,0.7v4c0,0.4,0.3,0.7,0.7,0.7H1021.1z M1065.2,32.7h-8c-0.4,0-0.7,0.3-0.7,0.7
			v104.3c0,0.4,0.3,0.7,0.7,0.7h8c0.4,0,0.7-0.3,0.7-0.7V33.5C1065.9,33.1,1065.6,32.7,1065.2,32.7z M1089,25.9h-8.6
			c-0.4,0-0.7,0.3-0.7,0.7v122.2c0,0.4,0.3,0.7,0.7,0.7h8.6c0.4,0,0.7-0.3,0.7-0.7V26.6C1089.8,26.2,1089.4,25.9,1089,25.9z
			 M1041.8,26.3h-8.3c-0.4,0-0.7,0.3-0.7,0.7v50.4c0,31.7-2.2,55.8-12.7,69.3l-0.1,0.1c-0.3,0.3-0.3,0.8,0,1l0,0l2.3,2.1
			c0.3,0.3,0.7,0.2,1,0c1-1,1.9-2,2.8-3c12.7-14.7,16.4-36.2,16.4-69.3V27C1042.5,26.6,1042.2,26.3,1041.8,26.3z M1220.4,67.4
			c0.4,0,0.7,0.3,0.7,0.7v4.2c0,0.4-0.3,0.7-0.7,0.7h-45.1c-0.4,0-0.7-0.3-0.7-0.7v-4.2c0-0.4,0.3-0.7,0.7-0.7H1220.4z M1194.3,44.5
			c0.4,0.5,0,1.2-0.6,1.2h-32.4c-0.4,0-0.7,0.3-0.7,0.7v22.4c0,0.4,0.3,0.7,0.7,0.7h8c0.4,0,0.7-0.3,0.7-0.7V52.1
			c0-0.4,0.3-0.7,0.7-0.7h53.4c0.4,0,0.7,0.3,0.7,0.7v16.9c0,0.4,0.3,0.7,0.7,0.7h8c0.4,0,0.7-0.3,0.7-0.7V46.4
			c0-0.4-0.3-0.7-0.7-0.7c0,0-33.8,0-33.9,0c-0.2,0-0.3-0.1-0.2-0.3l4.4-4.6c0.3-0.3,0.3-0.8,0-1c-7-6.7-14.3-12.2-20.4-15.5
			c-0.3-0.2-0.7-0.1-0.9,0.2l-2,2.4c-0.2,0.3-0.2,0.7,0,0.9C1185.3,32.6,1189.8,38.3,1194.3,44.5z M1146.4,70.8
			c-0.2-0.2-0.3-0.6-0.1-0.9c4.7-6.8,10.1-18.1,15.9-33.7c0.1-0.4,0-0.8-0.4-0.9l-9-4.1l-0.1,0c-0.2,0-0.4,0-0.5,0.1l-0.1,0.1
			l-2.1,1.7c-0.1,0.1-0.3,0.2-0.5,0.2h-14.1c-0.1,0-0.1,0-0.2,0l-8.6-2.4c-0.5-0.1-0.9,0.2-0.9,0.7v117.4c0,0.4,0.3,0.7,0.7,0.7h8.2
			c0.4,0,0.7-0.3,0.7-0.7V39.1c0-0.4,0.3-0.7,0.7-0.7h13.4c0.4,0,0.8,0.4,0.7,0.8c-1.5,10.8-5.2,23.9-8.3,31.5
			c-0.1,0.2-0.1,0.5,0.1,0.7c6.7,9.6,11.3,21.9,11.3,30.2c0.1,10.6-2.4,12-13.4,9.6l-0.1,0c-0.4-0.1-0.8,0.1-0.9,0.4l-0.9,3
			c-0.1,0.3,0,0.7,0.3,0.8c0.7,0.5,1.4,0.9,2.1,1.3c12.8,7.6,23,3.3,22.5-13C1162.6,92.9,1155.6,80.6,1146.4,70.8z M1236.5,118.9
			c-0.2-1.2-0.5-2.5-0.8-3.8c-0.1-0.3-0.4-0.6-0.7-0.6h-2.9l-0.1,0c-0.4,0-0.7,0.4-0.7,0.8l0-0.1c0.1,20.1-0.1,21.9-9.2,21.9
			c-9.4,0-10.3-0.3-10.4-6.6V95.4c0-0.4,0.3-0.7,0.7-0.7h20.8c0.4,0,0.7-0.3,0.7-0.7v-4.2c0-0.4-0.3-0.7-0.7-0.7H1165
			c-0.4,0-0.7,0.3-0.7,0.7V94c0,0.4,0.3,0.7,0.7,0.7h15.6c0.4,0,0.8,0.4,0.7,0.8c-0.6,22.7-8.3,39.8-30.2,50.8l-0.3,0.1
			c-0.4,0.2-0.5,0.6-0.4,1l1.3,2.8c0.2,0.3,0.6,0.5,0.9,0.4c1.3-0.5,2.6-1,3.9-1.5c23.1-9.3,33.6-27.4,34.8-53.7
			c0-0.4,0.3-0.7,0.7-0.7h8.9c0.4,0,0.7,0.3,0.7,0.7v37.2c0,13.5,4.4,13.9,20.1,13.9C1239,146.5,1240.8,139.8,1236.5,118.9z"/>
	</g>
</g>
</svg>
