<?xml version="1.0" encoding="utf-8"?>
<!-- Generator: Adobe Illustrator 26.0.1, SVG Export Plug-In . SVG Version: 6.00 Build 0)  -->
<svg version="1.1" id="圖層_1" xmlns="http://www.w3.org/2000/svg" xmlns:xlink="http://www.w3.org/1999/xlink" x="0px" y="0px"
	 viewBox="0 0 451 107" style="enable-background:new 0 0 451 107;" xml:space="preserve">
<style type="text/css">
	.st0{fill:#0096DF;}
	.st1{fill:#352F2F;}
	.st2{fill:#7F7F81;}
</style>
<path class="st0" d="M163.1,14.4c0,0.7-0.7,1.3-1.3,1.3c-0.2,0-0.7-0.2-0.9-0.4c-3.7-3.9-8.8-6.1-14.9-6.8c-1.1-0.2-2.2-0.2-3.3-0.2
	c-11.1,0-23.5,5.4-34.3,14.2l16.3,0.2h8.6c7.9,0,13.4,0.4,16.9,1.1c4.8,1.1,8.1,3.1,10.3,5.7c2,2.8,2.4,6.1,0.9,9.8
	c-0.9,2.4-2.4,4.8-4.6,6.8s-5.1,3.9-8.8,5.7c4.6,2,7.5,4.1,9,7c1.3,2.8,1.3,6.1,0,9.8c-1.3,3.7-3.7,7-7.5,10
	c-3.5,3.1-7.7,5.2-12.1,6.8c-4.4,1.5-10.3,2.2-17.1,2.2h-10.5c-0.4,0.1-0.7,0.2-1.1,0.2l-12.7-0.2l-0.1,0.2v-0.2L91,87.4
	c-1.8,0-3.3-1.5-3.3-3.3s1.5-3.3,3.3-3.3l7.3,0.1l18.9-51.8L101.3,29c0,0-0.1,0-0.1,0c-5.8,5.9-10.8,12.7-14.5,20.2l9.7,0.1
	c2,0,3.3,1.5,3.3,3.3s-1.5,3.3-3.3,3.3l-12.7-0.2c-2.1,5.3-3.2,10.7-3.6,15.6H68.8c0.7-7,2.6-14.2,6.2-21.8
	c12.5-27.2,40-47.7,63.5-47.7c1.3,0,2.6,0,4,0.2c8.8,0.9,15.8,4.8,20.4,11.5C163.1,13.7,163.3,14,163.1,14.4L163.1,14.4z M144.8,41
	c0.7-2,0.4-3.7-1.1-4.8c-1.3-1.1-4-1.7-7.7-1.7h-7.7l-5.1,13.7h7c4,0,7.3-0.7,9.7-2C142.4,44.9,144,43.2,144.8,41L144.8,41z
	 M113.2,75.6h7.7c6.8,0,11.6-0.7,14.5-2s4.6-3.3,5.7-5.7c1.1-2.8,0.4-5-1.8-6.5c-2.2-1.5-6.6-2.4-13-2.4h-7L113.2,75.6z M114.5,3.1
	C104.2,4.4,93,10,83.3,18.8c-3.7,3.3-7,7-10.1,10.9H62.9C76.3,11.6,96-0.6,114.3,0c0.9,0,1.5,0.7,1.5,1.5
	C115.8,2.2,115.4,3.1,114.5,3.1z M51.9,27c-5.7,7.4-10.3,15.9-12.7,24.8c-3.3,11.5-3.3,22.9-0.2,32.5c1.8,5.4,4.4,10,7.9,13.7
	c0.7,0.7,0.7,1.7,0,2.4c-0.2,0.4-0.9,0.7-1.3,0.7c-0.4,0-0.7,0-1.1-0.2c-4.9-3.4-8.7-8-11.4-13.3c-0.2,0-0.3,0.1-0.5,0.1l-13.8-0.2
	c-1.8,0-3.3-1.5-3.3-3.3s1.5-3.3,3.3-3.3L30.4,81c-2.7-9.2-2.6-20,0.8-31.1c2.2-7.4,5.7-14.4,10.2-20.6l-3.8-0.1
	c-1.8,0-3.3-1.5-3.3-3.3s1.5-3.3,3.3-3.3l8.4,0.2c0.2,0,0.4,0,0.6,0.1c6.6-7.2,14.7-12.9,23.5-16.2c1.1-0.4,2,0,2.4,0.9
	c0.2,0.9,0,2-0.4,2.6C64.6,14,57.6,19.8,51.9,27z M21.3,53.6L3.7,53.8c-2,0-3.7-1.7-3.7-3.7s1.8-3.7,3.7-3.7l17.4-0.2
	c2.2,0,4,1.7,4,3.7S23.3,53.6,21.3,53.6z M50.6,54.9c0.7-2.2,1.3-4.6,2.2-6.8c1.5-4.4,3.5-8.3,5.9-12h10.1c-2.6,4.6-5.1,9.2-7,14.2
	c-0.4,1.5-1.1,3-1.5,4.6H50.6z M58.2,61.2c-1.8,8.1-1.8,15.9-0.2,22.7c2.2,9.2,7,15.9,14.1,19.8c0.7,0.4,0.9,1.3,0.7,2
	c-0.2,0.4-0.7,0.9-1.3,0.9c-0.2,0-0.2,0-0.4,0c-8.6-2.4-15.2-7.8-19.1-15.7c-4.2-8.3-5.1-18.7-3.1-29.6L58.2,61.2z M80.7,77.6
	c0.4,4.6,1.5,8.5,3.5,12c3.7,6.5,10.1,10.5,18.2,11.3c1.1,0.2,2.2,0.2,3.3,0.2c5.9,0,12.3-1.5,18.9-4.6c0.7-0.2,1.5,0,1.8,0.7
	c0.4,0.7,0.2,1.3-0.4,1.7c-9.2,5.2-18.5,8.1-27,8.1c-1.3,0-2.6,0-4-0.2c-9.7-1.1-17.1-5.7-21.8-13.5c-2.6-4.6-4.2-9.8-4.2-15.7
	L80.7,77.6z"/>
<path class="st1" d="M312.8,79.4c-10.9,0-18.2-6.8-18.2-16.9c0-14.3,10.4-25.9,25.7-25.9c11.5,0,18.2,7.5,18.2,16.9
	C338.5,68.4,327.8,79.4,312.8,79.4z M318.6,45.7c-7.3,0-11,10.1-10.9,16.5c0,4.8,2.5,8,6.9,8c6.9,0,10.8-9.6,10.8-16.7
	C325.4,49.7,323.7,45.7,318.6,45.7L318.6,45.7z M294.6,46.6h-9.1l-2.9,13.9c-0.4,1.6-0.7,3.8-0.7,5.2c0,2,0.9,3.4,3.6,3.4
	c1.1,0,2.4,0,3.5-0.2l-1.5,9.5c-1.6,0.6-4.7,0.9-7.5,0.9c-7.6,0-11.2-3.8-11.2-8.9c0-2.3,0.3-4.4,0.9-7.6l6.8-33.1l13-3.4l-2.2,11.2
	h9.1L294.6,46.6z M260.2,32.3L260.2,32.3c-3.5,0-6.1-2.3-6.1-5.9c0.1-4.1,3.4-6.9,7.3-6.9c3.7,0,6.3,2.3,6.3,6
	C267.7,29.8,264.3,32.3,260.2,32.3z M256.8,78.4h-12.6l8.2-41H265L256.8,78.4z M231.8,48.5c5.7,1.7,9.3,6.1,9.3,12.3
	c0,6-3.4,10.5-8.1,13.4c-5,3.2-12.5,4.6-22.3,4.6c-6.7,0-12-0.5-14.9-1.1l10.9-54.9c4.2-0.8,9.7-1.3,15.5-1.3c6.1,0,10.7,0.8,14.7,3
	c4,1.9,6.9,5.5,6.9,10.3c0,7.1-5.5,11.7-11.9,13.4L231.8,48.5z M209.9,69.1c1.5,0.2,3,0.3,4.8,0.3c6.9,0,13.1-2.6,13.1-8.9
	c0-5.6-4.9-7.3-10.8-7.3h-4L209.9,69.1z M222.5,30.9c-2.2,0-4,0.2-4.9,0.4L215,44.4h4.2c6.9,0,11.7-2.9,11.7-7.6
	C230.9,32.7,227.4,30.9,222.5,30.9L222.5,30.9z"/>
<path class="st2" d="M433.4,36.7c-14.6,0-24.7,12-24.7,25.8c0,9.7,6.7,16.9,17.5,16.9c14.6,0,24.8-11.9,24.8-25.7
	C451,44.6,444.9,36.7,433.4,36.7z M427.6,71.8c-5.2,0-8.3-3.9-8.3-9.6c0-7.6,4.7-18,12.9-18c6.2,0,8.2,5.2,8.2,9.4
	C440.4,61.8,435.3,71.8,427.6,71.8z"/>
<path class="st2" d="M409,46.2c-7.3,0-11.9,7-13.6,15.8l-3.3,16.4H382c0,0,6.7-37.1,7.2-40.8h9.6c-0.6,2.7-1.2,5.6-1.7,8.6h0.3
	c2.9-5.5,7.6-9.6,13.4-9.6c0.7,0,1.5,0.1,2.2,0.2l-2,9.6C410.4,46.3,409.7,46.2,409,46.2z"/>
<path class="st2" d="M380.8,25.5c-3.8-2.9-9.7-4-15.1-4c-5.4,0-10.7,0.5-14.3,1.3l-11.1,55.6h10.1l4.2-21.4c1.6,0.2,3.4,0.4,5.5,0.4
	c7,0,13.8-1.8,18.5-5.4c4.2-3.3,7.6-8.6,7.6-15.3C386.3,31.7,384.3,28.1,380.8,25.5z M361.6,49.5c-2.2,0-3.7-0.2-5.4-0.5l3.9-19.1
	c1.1-0.3,3.1-0.5,5.6-0.5c5.8,0,10.3,2.2,10.3,8.1C376,44.2,370.3,49.5,361.6,49.5z"/>
</svg>
