<?xml version="1.0" encoding="utf-8"?>
<!-- Generator: Adobe Illustrator 25.2.1, SVG Export Plug-In . SVG Version: 6.00 Build 0)  -->
<svg version="1.1" id="圖層_1" xmlns="http://www.w3.org/2000/svg" xmlns:xlink="http://www.w3.org/1999/xlink" x="0px" y="0px"
	 viewBox="0 0 285.06 47.93" style="enable-background:new 0 0 285.06 47.93;" xml:space="preserve">
<style type="text/css">
	.st0{clip-path:url(#SVGID_2_);fill:url(#SVGID_3_);}
	.st1{clip-path:url(#SVGID_2_);}
	.st2{clip-path:url(#SVGID_6_);fill:url(#SVGID_7_);}
	.st3{clip-path:url(#SVGID_2_);fill:url(#SVGID_8_);}
	.st4{clip-path:url(#SVGID_2_);fill:url(#SVGID_9_);}
	.st5{clip-path:url(#SVGID_2_);fill:url(#SVGID_10_);}
	.st6{clip-path:url(#SVGID_2_);fill:url(#SVGID_11_);}
	.st7{opacity:0.6;clip-path:url(#SVGID_2_);fill:url(#SVGID_12_);}
	.st8{clip-path:url(#SVGID_2_);fill:url(#SVGID_13_);}
	.st9{clip-path:url(#SVGID_2_);fill:#FFFFFF;}
	.st10{fill:#231815;}
	.st11{clip-path:url(#SVGID_15_);fill:url(#SVGID_16_);}
	.st12{clip-path:url(#SVGID_15_);}
	.st13{clip-path:url(#SVGID_19_);fill:url(#SVGID_20_);}
	.st14{clip-path:url(#SVGID_15_);fill:url(#SVGID_21_);}
	.st15{clip-path:url(#SVGID_15_);fill:url(#SVGID_22_);}
	.st16{clip-path:url(#SVGID_15_);fill:url(#SVGID_23_);}
	.st17{clip-path:url(#SVGID_15_);fill:url(#SVGID_24_);}
	.st18{opacity:0.6;clip-path:url(#SVGID_15_);fill:url(#SVGID_25_);}
	.st19{clip-path:url(#SVGID_15_);fill:url(#SVGID_26_);}
	.st20{clip-path:url(#SVGID_15_);fill:#FFFFFF;}
	.st21{clip-path:url(#SVGID_28_);fill:url(#SVGID_29_);}
	.st22{clip-path:url(#SVGID_28_);}
	.st23{clip-path:url(#SVGID_32_);fill:url(#SVGID_33_);}
	.st24{clip-path:url(#SVGID_28_);fill:url(#SVGID_34_);}
	.st25{clip-path:url(#SVGID_28_);fill:url(#SVGID_35_);}
	.st26{clip-path:url(#SVGID_28_);fill:url(#SVGID_36_);}
	.st27{clip-path:url(#SVGID_28_);fill:url(#SVGID_37_);}
	.st28{opacity:0.6;clip-path:url(#SVGID_28_);fill:url(#SVGID_38_);}
	.st29{clip-path:url(#SVGID_28_);fill:url(#SVGID_39_);}
	.st30{clip-path:url(#SVGID_28_);fill:#FFFFFF;}
</style>
<g>
	<g>
		<g>
			<defs>
				<path id="SVGID_27_" d="M67.43,23.98c0,13.23-15.09,23.95-33.71,23.95C15.09,47.92,0,37.2,0,23.98
					C0,10.75,15.09,0.03,33.71,0.03C52.33,0.03,67.43,10.75,67.43,23.98z"/>
			</defs>
			<clipPath id="SVGID_2_">
				<use xlink:href="#SVGID_27_"  style="overflow:visible;"/>
			</clipPath>
			
				<radialGradient id="SVGID_3_" cx="55.6575" cy="1914.8123" r="35.8881" fx="71.4383" fy="1890.4512" gradientTransform="matrix(0.9938 0 0 0.7059 -20.4409 -1329.9926)" gradientUnits="userSpaceOnUse">
				<stop  offset="0.5487" style="stop-color:#D71718"/>
				<stop  offset="0.6164" style="stop-color:#D3191A"/>
				<stop  offset="0.7082" style="stop-color:#C51D1E"/>
				<stop  offset="0.8134" style="stop-color:#AF2222"/>
				<stop  offset="0.9059" style="stop-color:#962527"/>
			</radialGradient>
			<path class="st0" d="M67.43,23.98c0,13.23-15.09,23.95-33.71,23.95C15.1,47.93,0,37.21,0,23.98C0,10.76,15.1,0.04,33.72,0.04
				C52.33,0.04,67.43,10.76,67.43,23.98z"/>
			<g class="st1">
				<defs>
					<path id="SVGID_30_" d="M53.07,41.6c-4.26,0.16-7.83-2.64-8.7-6.81c-0.25-1.22-0.21-2.45-0.11-3.68
						c0.35-4.17,1.13-8.29,1.73-12.42c0.25-1.66,0.53-3.33,0.35-5.03c-0.1-0.96-0.31-1.67-0.94-2.34c-0.73-0.77-1.67-0.94-2.68-0.86
						c-1.31,0.1-2.53,0.56-3.72,1.05c-3.31,1.37-6.32,3.26-9.22,5.33c-2.52,1.8-4.93,3.74-7.14,5.91c-0.1,0.09-0.2,0.17-0.31,0.25
						c-0.04-0.04-0.07-0.07-0.11-0.11c0.07-0.1,0.12-0.21,0.2-0.3c4.09-4.44,8.78-8.97,13.99-12.53c3.6-2.46,7.41-4.55,11.43-6.24
						c0.62-0.26,1.9-0.74,2.21-0.85c-0.81-0.32-1.5-0.56-2.36-0.84c-0.27,0.09-0.54,0.17-0.76,0.24c-7.06,2.05-13.84,4.82-20.36,8.2
						c-5.8,3.01-11.3,6.48-16.32,10.66c-3.22,2.69-6.18,5.63-8.66,9.03c-0.07,0.1-0.31,0.46-0.43,0.61
						c1.65,4.03,4.84,7.47,8.96,10.32c0.5-0.9,1.03-1.89,1.55-2.75c2.04-3.37,4.32-6.58,6.79-9.65c1.88-2.34,4.04-4.4,6.32-6.36
						c2.77-2.38,5.67-4.6,8.89-6.36c1.09-0.59,2.23-1.1,3.39-1.53c1.88-0.7,1.28,0.79,1.12,1.13c-0.52,1.1-1.08,2.18-1.63,3.26
						c-1.75,3.49-3.48,7-4.93,10.63c-0.76,1.9-1.47,3.82-1.73,5.87c-0.29,2.27-0.1,4.46,1.28,6.39c1.02,1.43,2.45,2.32,4.08,2.9
						c3.01,1.07,6.13,1.14,9.25,0.81c1.8-0.19,3.46-0.44,5.37-0.83c0.73-0.15,1.3-0.23,2.43-0.59c0.17-0.21,3.19-0.45,9.05-6.44
						c-0.27,0.27-0.49,0.43-0.78,0.69C58.43,40.27,55.97,41.49,53.07,41.6z"/>
				</defs>
				<radialGradient id="SVGID_5_" cx="32.2897" cy="21.8525" r="27.244" fx="44.2695" fy="3.3591" gradientUnits="userSpaceOnUse">
					<stop  offset="0.5487" style="stop-color:#FFFFFF"/>
					<stop  offset="0.603" style="stop-color:#F9F9F9"/>
					<stop  offset="0.6767" style="stop-color:#E8E8E8"/>
					<stop  offset="0.7616" style="stop-color:#CBCBCB"/>
					<stop  offset="0.8547" style="stop-color:#A3A3A3"/>
					<stop  offset="0.95" style="stop-color:#737373"/>
					<stop  offset="1" style="stop-color:#8C8C8C"/>
				</radialGradient>
				<use xlink:href="#SVGID_30_"  style="overflow:visible;fill:url(#SVGID_5_);"/>
				<clipPath id="SVGID_6_">
					<use xlink:href="#SVGID_30_"  style="overflow:visible;"/>
				</clipPath>
				
					<radialGradient id="SVGID_7_" cx="55.6725" cy="1914.759" r="35.8864" fx="71.4525" fy="1890.3992" gradientTransform="matrix(0.9938 0 0 0.7059 -20.4409 -1329.9926)" gradientUnits="userSpaceOnUse">
					<stop  offset="0.5487" style="stop-color:#FFFFFF"/>
					<stop  offset="0.603" style="stop-color:#F9F9F9"/>
					<stop  offset="0.6767" style="stop-color:#E8E8E8"/>
					<stop  offset="0.7616" style="stop-color:#CBCBCB"/>
					<stop  offset="0.8547" style="stop-color:#A3A3A3"/>
					<stop  offset="0.95" style="stop-color:#737373"/>
					<stop  offset="1" style="stop-color:#8C8C8C"/>
				</radialGradient>
				<path class="st2" d="M67.44,23.95c0,13.23-15.09,23.95-33.71,23.95c-18.62,0-33.71-10.72-33.71-23.95
					C0.02,10.72,15.11,0,33.73,0C52.62,0,67.44,10.49,67.44,23.95z"/>
			</g>
			<linearGradient id="SVGID_8_" gradientUnits="userSpaceOnUse" x1="19.0354" y1="19.1584" x2="56.407" y2="5.7569">
				<stop  offset="0.0365" style="stop-color:#333333"/>
				<stop  offset="0.1207" style="stop-color:#3A3A3A"/>
				<stop  offset="0.2416" style="stop-color:#4D4D4D"/>
				<stop  offset="0.3848" style="stop-color:#6C6C6C"/>
				<stop  offset="0.545" style="stop-color:#979797"/>
				<stop  offset="0.7172" style="stop-color:#CECECE"/>
				<stop  offset="0.8533" style="stop-color:#FFFFFF"/>
			</linearGradient>
			<path class="st3" d="M47.86,3.83c-4.02,1.68-7.82,3.78-11.44,6.24c-5.21,3.56-9.89,8.09-13.99,12.53c-0.09,0.1-0.16,0.2-0.21,0.3
				c-0.06,0.12,0.03,0.16,0.11,0.11c0.08-0.05,0.22-0.17,0.31-0.26c1.14-1.12,2.33-2.18,3.57-3.19C36.03,9.07,48.77,3.59,50.03,3
				c-0.01,0-0.01,0-0.02,0c-0.03,0.01-0.07,0.03-0.12,0.04C49.43,3.22,48.4,3.6,47.86,3.83z"/>
			<path class="st1" d="M50.14,2.95c-0.02,0.01-0.06,0.02-0.1,0.03c0.01,0,0.02,0.01,0.03,0.01C50.12,2.97,50.14,2.96,50.14,2.95z"
				/>
			<path class="st1" d="M50.07,2.99C50.07,2.99,50.07,2.99,50.07,2.99C50.06,3,50.05,3,50.04,3.01C50.05,3.01,50.06,3,50.07,2.99z"
				/>
			<linearGradient id="SVGID_9_" gradientUnits="userSpaceOnUse" x1="53.1706" y1="6.9132" x2="43.7862" y2="40.0444">
				<stop  offset="0.0365" style="stop-color:#333333"/>
				<stop  offset="0.1207" style="stop-color:#3A3A3A"/>
				<stop  offset="0.2416" style="stop-color:#4D4D4D"/>
				<stop  offset="0.3848" style="stop-color:#6C6C6C"/>
				<stop  offset="0.545" style="stop-color:#979797"/>
				<stop  offset="0.7172" style="stop-color:#CECECE"/>
				<stop  offset="0.8533" style="stop-color:#FFFFFF"/>
			</linearGradient>
			<path class="st4" d="M45.98,18.69c-0.6,4.14-1.39,8.25-1.73,12.42c-0.1,1.23-0.14,2.46,0.11,3.68c0.64,3.06,2.73,5.37,5.47,6.33
				c-2.99-1.53-5.45-4.76-5.06-9.26c0.35-4.04,1.07-8.13,1.68-12.14c0.25-1.61,0.54-3.65,0.35-5.29c-0.1-0.84-0.58-2.26-1.21-2.89
				c-0.02-0.02-0.04-0.06-0.06-0.08c0.46,0.53,0.72,1.4,0.8,2.2C46.52,15.36,46.23,17.03,45.98,18.69z"/>
			<linearGradient id="SVGID_10_" gradientUnits="userSpaceOnUse" x1="25.8057" y1="25.0393" x2="9.5711" y2="58.0795">
				<stop  offset="0.0365" style="stop-color:#525252"/>
				<stop  offset="0.1304" style="stop-color:#595959"/>
				<stop  offset="0.2654" style="stop-color:#6C6C6C"/>
				<stop  offset="0.4252" style="stop-color:#8B8B8B"/>
				<stop  offset="0.6039" style="stop-color:#B6B6B6"/>
				<stop  offset="0.7962" style="stop-color:#EDEDED"/>
				<stop  offset="0.8533" style="stop-color:#FFFFFF"/>
			</linearGradient>
			<path class="st5" d="M37.07,14.57c-1.16,0.43-2.3,0.94-3.39,1.53c-3.22,1.75-6.12,3.95-8.89,6.34c-2.27,1.95-4.44,4.04-6.32,6.38
				c-2.48,3.09-4.7,6.21-6.79,9.65c-0.49,0.81-1.55,2.74-1.55,2.74l-0.14,0.51c0,0,1.06-1.81,1.58-2.66
				c8.21-13.55,17.69-19.94,23.58-22.94c1.7-0.86,2.69-1.08,3.22-0.92C38.49,14.68,38.41,14.08,37.07,14.57z"/>
			
				<radialGradient id="SVGID_11_" cx="762.0532" cy="-1090.1455" r="25.6204" fx="763.4913" fy="-1089.9434" gradientTransform="matrix(0.1009 -0.6478 4.3558 0.4012 4720.8481 919.5677)" gradientUnits="userSpaceOnUse">
				<stop  offset="0.2812" style="stop-color:#FFFFFF"/>
				<stop  offset="1" style="stop-color:#FFFFFF;stop-opacity:0"/>
			</radialGradient>
			<path class="st6" d="M47.12,2.51c-3.46-0.99-8.37-2.07-14.58-1.96C27.4,0.65,24.48,1.4,21.25,2.19c-2.78,0.68-7.39,2.8-9.9,4.46
				c-2.15,1.43,4.28,8.73,17.65,2.66c5.87-2.66,11.11-4.26,12.98-4.81C45.83,3.37,48.03,2.78,47.12,2.51z"/>
			
				<radialGradient id="SVGID_12_" cx="716.8843" cy="-960.1464" r="20.3928" fx="713.9788" fy="-960.3702" gradientTransform="matrix(0.1405 -0.6422 2.5836 0.3404 2448.0603 786.2372)" gradientUnits="userSpaceOnUse">
				<stop  offset="0.2812" style="stop-color:#FFFFFF"/>
				<stop  offset="1" style="stop-color:#FFFFFF;stop-opacity:0"/>
			</radialGradient>
			<path class="st7" d="M58.13,8.2c-3.07-2.33-4.62-2.92-6.29-3.79c-0.79-0.41-1.93-0.87-2.79-0.44c-1.93,0.95-4.08,2.13-7.02,3.98
				c-5.85,3.68-4.79,3.53-0.18,2.59c1.19-0.25,2.36-0.11,3.02,0.33c2.28,1.52,3.3,2.63,2.45,8.22c-0.77,4.99,19.55,6.85,17.62-2.37
				C64.51,14.69,61.8,10.98,58.13,8.2z"/>
			<linearGradient id="SVGID_13_" gradientUnits="userSpaceOnUse" x1="18.2688" y1="17.5363" x2="44.6763" y2="12.4434">
				<stop  offset="0.0365" style="stop-color:#333333"/>
				<stop  offset="0.1207" style="stop-color:#3A3A3A"/>
				<stop  offset="0.2416" style="stop-color:#4D4D4D"/>
				<stop  offset="0.3848" style="stop-color:#6C6C6C"/>
				<stop  offset="0.545" style="stop-color:#979797"/>
				<stop  offset="0.7172" style="stop-color:#CECECE"/>
				<stop  offset="0.8533" style="stop-color:#FFFFFF"/>
			</linearGradient>
			<path class="st8" d="M29.21,17.31c0,0,5.97-4.09,9.43-5.49c1.25-0.51,2.75-1.11,4.12-1.22c1.05-0.08,1.87,0.11,2.63,0.9
				c0.51,0.53,0.44,0.28,0.01-0.18c-0.73-0.79-1.68-0.95-2.7-0.87c-1.33,0.1-2.6,0.57-3.82,1.07c-3.36,1.37-6.65,3.54-9.43,5.56
				c-0.87,0.63-1.29,0.95-1.3,0.97C28.13,18.07,28.49,17.82,29.21,17.31z"/>
			<path class="st9" d="M38.29,16.59c0.28-0.53,0.42-1.45,0.05-2c0.24,0.53-0.13,1.07-1.78,4.37c-1.75,3.51-3.21,6.44-4.9,10.52
				c-0.85,2.06-1.5,3.93-1.77,5.98c-0.1,0.79-0.15,1.55-0.11,2.31c0.02-0.28,0.05-0.9,0.09-1.18
				C30.58,32.09,34.26,24.38,38.29,16.59z"/>
			<path class="st9" d="M25.98,11.17c7.07-4.06,13.07-6.07,21.94-9.01c-0.29-0.1,0.01,0.11-0.29,0.01
				c-0.26,0.08-7.91,1.32-21.39,8.58C10.17,19.39,5.12,25.75,2.2,29.5C5.63,25.89,9.4,20.68,25.98,11.17z"/>
		</g>
	</g>
	<g>
		<g>
			<g>
				<path class="st10" d="M161.3,23.43h-4.54v17.54c0,0.76-0.3,1.11-0.93,1.11h-5.02l0.05,3.56h6.4c1.12,0,2.08-0.38,2.85-1.13
					c0.78-0.74,1.18-1.68,1.18-2.77V23.43z"/>
				<polygon class="st10" points="149.47,33.53 138.8,43.23 145.64,43.23 155.83,33.53 				"/>
				<polygon class="st10" points="168.41,33.53 179.07,43.23 172.23,43.23 162.04,33.53 				"/>
				<path class="st10" d="M182.69,33.25c-3.79-2.89-9.16-7.74-12.16-11.67h9.63v-3.61h-24.83c0.35-0.62,0.81-1.89,1.35-3.04h20.2
					v-3.63h-18.63c0.41-0.97,0.72-1.81,0.91-2.51h19.66V5.05H160.2c0.15-0.51,0.34-1.3,0.58-2.43l0.04-0.17h-4.84l-0.02,0.12
					c-0.19,1.07-0.37,1.9-0.53,2.48h-16.22v3.73h15.12c-0.29,0.96-0.61,1.8-0.96,2.51h-12.08v3.63h10.35
					c-0.44,0.95-0.96,2.22-1.55,3.04h-12.19v3.61h9.78c-3.63,4.8-7,7.77-11.88,11.67l-0.32,0.25h6.67l0.04-0.03
					c2.06-1.49,3.39-2.72,5.48-4.85l2.6,3.26h5.63l-5.24-6.82c0.99-1.23,1.75-2.32,2.4-3.48h11.93c0.7,1.07,1.52,2.23,2.45,3.46
					l-5.38,6.84h5.77l2.74-3.42c0.63,0.62,3.79,3.73,5.53,5.02l0.04,0.03h6.91L182.69,33.25z"/>
			</g>
			<g>
				<polygon class="st10" points="103.88,13.77 96,13.77 96,7.58 103.06,6.59 103.06,2.45 84.17,5.04 83.93,5.07 83.93,9.02 
					91.29,8.06 91.29,13.77 83.19,13.77 83.19,17.58 91.29,17.58 91.29,45.52 96,45.52 96,17.58 103.88,17.58 				"/>
				<path class="st10" d="M124.56,6.69c-0.79-0.9-1.93-1.36-3.37-1.36h-9.9c-1.24,0-2.32,0.4-3.22,1.18
					c-0.9,0.79-1.36,1.84-1.36,3.12v31.35c0,1.16,0.41,2.21,1.21,3.13c0.81,0.93,1.73,1.4,2.74,1.4h10.71c1.26,0,2.3-0.34,3.12-1.01
					c0.83-0.68,1.25-1.67,1.25-2.94V10.3C125.74,8.8,125.34,7.59,124.56,6.69z M120.71,9.88v31.04c0,0.51-0.21,0.72-0.73,0.72h-7.6
					c-0.55,0-0.77-0.22-0.77-0.77V10.07c0-0.64,0.3-0.73,0.63-0.73h7.74C120.62,9.35,120.71,9.61,120.71,9.88z"/>
				<path class="st10" d="M85.87,19.6C85.8,20.44,84,34.19,83.12,40.93l-0.04,0.31h4.44l2.62-21.64H85.87z"/>
				<path class="st10" d="M104.52,40.91c-0.88-6.74-2.67-20.47-2.74-21.31h-4.27l2.61,21.62h4.44L104.52,40.91z"/>
			</g>
			<g>
				<path class="st10" d="M231.77,30.25h-16.79v-2.61h15.75l0.01-3.46h-15.78v-2.56h14.68v-3.41h-14.68v-2.46h14.68v-3.41h-14.68
					V9.98h15.64V6.47h-15.37c-0.57-1.18-1.1-2.5-1.6-3.93l-0.02-0.07h-4.65l0.04,0.13c0.38,1.29,0.91,2.59,1.43,3.86h-8.46
					c1.09-1.25,2.17-2.67,2.92-3.84l0.1-0.16h-5.76l-0.03,0.04c-2.25,3.19-5.41,6.27-9.4,9.15l-0.26,0.19h5.3V23.2
					c0,1.12,0.35,2.15,1.01,2.97c0.72,0.92,1.83,1.47,2.71,1.47h11.68v2.61h-19.22v3.46h19.22v11.85h4.74V33.71h16.79V30.25z
					 M210.23,24.18h-9.51c-0.6,0-1.08-0.62-1.08-1.13v-1.43h10.59V24.18z M210.23,18.21h-10.59v-2.46h10.59V18.21z M210.23,12.34
					h-10.59V9.98h10.59V12.34z"/>
				<polygon class="st10" points="192.32,45.08 199.16,45.08 208.61,36.05 202.24,36.05 				"/>
				<polygon class="st10" points="222.66,36.05 216.3,36.05 226.25,45.54 233.09,45.54 				"/>
			</g>
			<g>
				<path class="st10" d="M273.71,29.95h-4.45v1.53H249.2v3.02h20.07v2.66c0,0.63-0.39,1.03-0.98,1.03h-3.65l1.24,3.05l0.03,0.06
					h4.21c1.51,0,2.36-0.66,2.79-1.22c0.51-0.65,0.81-1.63,0.81-2.63V34.5H279v-3.02h-5.28V29.95z"/>
				<path class="st10" d="M283.8,4.13c-0.83-0.88-2-1.31-3.58-1.31h-32.65c-1.17,0-2.18,0.37-3.03,1.11
					c-0.89,0.78-1.42,1.92-1.42,3.04v33.59c0,1.65,0.6,2.69,1.11,3.27c0.82,0.96,2.07,1.52,3.43,1.52h32.8
					c1.43,0,2.71-0.54,3.58-1.52c0.46-0.54,1.01-1.43,1.01-2.63V7.85C285.06,6.26,284.64,5.01,283.8,4.13z M280.57,40.79
					c0,0.72-0.52,1.28-1.18,1.28h-30.53c-0.71,0-1.33-0.67-1.33-1.43V7.4c0-0.8,0.82-1.43,1.52-1.43h30.23
					c0.75,0,1.28,0.57,1.28,1.38V40.79z"/>
				<polygon class="st10" points="255.08,35.67 257.05,40.53 262.17,40.53 260.21,35.67 				"/>
				<path class="st10" d="M262.02,13.43h-7.25c-1.07,0-2.03,0.37-2.78,1.06c-0.74,0.69-1.17,1.67-1.17,2.69v3.45
					c0,1.25,0.44,2.26,1.27,2.94c0.77,0.67,1.78,1.01,2.98,1.01h6.95v1.74l-12.76,0.49l0.11,3.01l25.87-0.98l0.18,1.14h3.55
					l-0.96-5.92h-2.44c0.21-0.11,0.41-0.22,0.58-0.37c0.72-0.59,1.15-1.5,1.15-2.72v-3.21c0-1.13-0.36-2.17-1.01-2.93
					c-0.75-0.9-1.87-1.42-3.09-1.42h-6.9v-1.42h12.53V8.99h-12.53V7.07h-4.3v1.92h-12.77v3.02h12.77V13.43z M255.13,17.07
					c0-0.37,0.29-0.78,0.93-0.78c0.64,0,5.96,0,5.96,0v1.44h-6.9C255.13,17.73,255.13,17.44,255.13,17.07z M255.96,21.67
					c-0.54,0-0.83-0.5-0.83-0.9c0-0.4,0-0.54,0-0.54h6.9v1.43C262.02,21.67,256.5,21.67,255.96,21.67z M266.32,16.29
					c0,0,5.06,0,5.77,0c0.71,0,0.98,0.34,0.98,0.69c0,0.34,0,0.76,0,0.76h-6.75V16.29z M266.32,20.23h6.75c0,0,0,0.23,0,0.7
					c0,0.47-0.34,0.74-0.89,0.74c-0.55,0-5.86,0-5.86,0V20.23z M273.19,24.59c0.43,0,0.89-0.05,1.34-0.16l0.23,1.41l-8.44,0.32
					v-1.58C266.32,24.59,271.34,24.59,273.19,24.59z"/>
			</g>
		</g>
	</g>
</g>
</svg>
